<svg width="375" height="80" viewBox="0 0 375 80" fill="none" xmlns="http://www.w3.org/2000/svg">
<path opacity="0.25" d="M164.958 0.00179004C165.13 -0.0018929 165.273 -0.000437795 165.392 0.00846683C165.506 0.0170284 165.603 0.0309481 165.715 0.0651779C165.887 0.117716 166.039 0.19455 166.198 0.364909C166.549 0.741428 166.574 1.3005 166.286 1.70498C165.846 2.3247 165.02 2.82157 163.852 3.23991L163.583 3.33334L163.223 3.45646L162.807 3.59799L162.15 3.81822L161.208 4.12877L159.943 4.53679L158.517 4.98738L155.928 5.79122L150.781 7.37747L149.139 7.89045L147.716 8.34233L146.57 8.71403L145.61 9.03256C145.167 9.1814 144.733 9.32924 144.294 9.4813L143.376 9.80126L142.279 10.1862L140.266 10.8994L138.434 11.5561L136.947 12.095L134.634 12.9427L132.799 13.622L129.233 14.9556L124.59 16.709L113.346 20.9796L107.724 23.1233L104.21 24.4697L100.327 25.9644L97.6866 26.9862L94.6535 28.1666L91.7562 29.3017L90.3548 29.8539L88.5316 30.5757L86.3206 31.4567L85.4559 31.803L83.7577 32.4866L82.0981 33.159L80.4736 33.8219L78.8804 34.4766L77.315 35.1248L75.7738 35.7679L73.8756 36.5669L72.3754 37.204L70.8875 37.841L69.4083 38.4792L68.2064 39.0014L66.8058 39.6142L65.1676 40.3367L64.1407 40.7935L63.1247 41.2485L62.1195 41.7019L61.1252 42.1535L60.1416 42.6035C59.9786 42.6784 59.8161 42.7532 59.6539 42.8279L58.6866 43.2754L57.73 43.7213C57.5715 43.7955 57.4135 43.8696 57.2558 43.9437L56.3154 44.3872L55.3857 44.8292L54.4668 45.2697L53.5585 45.7087L52.6609 46.1461L51.7741 46.5821L50.8979 47.0167L50.0323 47.4499L49.1773 47.8817C49.0357 47.9535 48.8945 48.0253 48.7538 48.0971L47.9148 48.5268L47.0863 48.9552L46.2685 49.3823C46.133 49.4534 45.998 49.5244 45.8635 49.5953L45.0614 50.0205L44.2699 50.4444L43.489 50.8671L42.7185 51.2886L41.9585 51.7089C41.8327 51.7788 41.7073 51.8487 41.5824 51.9186L40.8381 52.3372L40.1042 52.7546L39.3808 53.1709C39.0217 53.3788 38.6665 53.5863 38.3152 53.7934L37.6178 54.2071C37.5024 54.2759 37.3875 54.3447 37.273 54.4135L36.5911 54.8256C36.4784 54.8943 36.366 54.9628 36.2541 55.0313L35.5878 55.442C35.0368 55.7838 34.4966 56.1247 33.9671 56.4645L33.3369 56.872C33.2327 56.9398 33.129 57.0076 33.0256 57.0754L32.4108 57.4815C31.8011 57.8872 31.2068 58.2916 30.6277 58.6949L30.0538 59.0978C29.959 59.1649 29.8646 59.2319 29.7707 59.2989L29.212 59.7007C28.5662 60.169 27.9411 60.6359 27.3367 61.1015C24.6535 63.1683 23.2017 65.43 22.6516 68.0267C22.3419 69.4883 22.3047 70.9082 22.4992 72.7864L22.5397 73.1557C22.5469 73.2183 22.5544 73.2814 22.5621 73.345L22.6112 73.733L22.6659 74.1345L22.7261 74.5503C22.7366 74.6208 22.7474 74.6919 22.7583 74.7637L22.8268 75.2024C22.902 75.6748 23.2478 76.1601 23.9879 76.6736L24.2161 76.8303L24.3612 76.9276L24.502 77.0194L24.6394 77.1057L24.7744 77.1867C24.7967 77.1997 24.819 77.2126 24.8413 77.2252L24.9745 77.2985C24.9967 77.3103 25.0189 77.3219 25.0411 77.3333L25.1749 77.3992L25.3102 77.4603C25.7196 77.6367 26.1636 77.7506 26.7631 77.8184L26.9689 77.8392L27.1871 77.8568L27.4189 77.8713L27.6651 77.8827C27.7074 77.8843 27.7504 77.8859 27.794 77.8873L28.0638 77.8944L28.3506 77.8989L28.6554 77.9008L29.0273 77.9L29.325 77.8975L29.9677 77.8877L30.6779 77.8722L32.7141 77.815L34.9468 77.7414L36.5107 77.6804L37.5683 77.6324L38.2237 77.5989L38.9917 77.555L39.8453 77.4989L40.6335 77.4385L41.1272 77.3955L41.7134 77.3382L42.1609 77.2895L42.5924 77.2378L43.0105 77.1831L43.317 77.14L43.7184 77.0794L44.0155 77.0317L44.4038 76.9655L44.5997 76.9302L45.0781 76.8354L46.0543 76.6301L49.5828 75.8593L53.5885 74.9816L54.6154 74.7636L58.4359 73.9656L60.9129 73.442L63.5723 72.8726L65.4629 72.462L67.8676 71.9315L69.883 71.4785L71.5596 71.0951L73.2017 70.7133L76.4226 69.9557L78.5459 69.4537L84.3136 68.0789L89.5965 66.8062L95.631 65.34L105.961 62.8101L119.429 59.4931L144.204 53.3497L191.139 41.6704L209.437 37.1427L218.24 34.9778L225.183 33.2777L225.905 33.1027L227.107 32.8142L229.729 32.1959L232.752 31.5002L235.134 30.9613L239.259 30.0402L282.043 20.5785L291.856 18.4254L298.498 16.9798L304.31 15.7261L309.552 14.6059L313.119 13.8494L317.502 12.9259C317.798 12.8637 318.096 12.8012 318.395 12.7385C319.09 12.5927 319.782 12.4501 320.474 12.31L321.365 12.1312L322.222 11.962L323.01 11.8086L323.803 11.6568L325.137 11.4065L326.491 11.1589L328.15 10.864L329.282 10.6679L330.436 10.4718L331.917 10.2259L333.443 9.97802L334.702 9.77781L335.996 9.57533L337.668 9.31832L339.054 9.10899L340.849 8.8419L343.103 8.51216L345.072 8.22859L347.977 7.81627L351.988 7.25607L358.56 6.34809L362.718 5.75176L364.59 5.4922L365.882 5.32094L366.572 5.23323L367.398 5.13243L367.881 5.07606L368.671 4.98784L369.457 4.90538L370.414 4.81181L371.255 4.73498L371.792 4.68896L372.469 4.63527L372.949 4.60093L373.407 4.5718L373.699 4.55534L373.981 4.54129L374.386 4.52482L374.644 4.51697L374.893 4.51166L375.133 4.50893L375.363 4.50883L375.585 4.51137L375.798 4.51661C375.833 4.51771 375.867 4.51893 375.901 4.52026L376.102 4.52961C376.134 4.5314 376.167 4.5333 376.199 4.53533L376.387 4.54888C376.417 4.55137 376.448 4.55398 376.478 4.55671L376.654 4.57454L376.822 4.59527L376.982 4.61894C377.087 4.6357 377.186 4.65445 377.281 4.67524L377.419 4.70794C377.464 4.71936 377.508 4.73129 377.551 4.74374L377.675 4.78266C377.716 4.79616 377.755 4.81018 377.793 4.82474L377.905 4.87003C377.923 4.87784 377.94 4.88579 377.958 4.89388L378.06 4.94404C378.554 5.20303 378.819 5.58558 378.945 6.11282L378.968 6.2202C378.972 6.23842 378.976 6.2568 378.979 6.27535L378.997 6.38859L379.028 6.64058L379.033 6.66803L379.045 6.72119L379.07 6.81633L379.199 7.24629L379.208 7.27933C379.44 8.12091 379.38 8.8227 378.798 9.49473C377.275 11.2498 375.82 12.4552 373.591 13.5858L373.28 13.7412L372.979 13.8879L372.777 13.9846L372.371 14.1757L371.957 14.3657L371.638 14.5085L371.311 14.6523L370.974 14.7979L370.505 14.9961L370.137 15.1487L369.487 15.413L368.784 15.6926L368.02 15.9909L366.652 16.5158L364.862 17.1916L362.117 18.2244L360.78 18.7367L359.98 19.0499L359.454 19.2599L359.056 19.4216L358.863 19.5009C358.606 19.6066 358.352 19.7127 358.093 19.8223L356.252 20.605L354.402 21.3973L353.005 21.9992L351.127 22.8139L349.225 23.6445L347.293 24.4934L345.327 25.3629L343.827 26.03L341.786 26.9412L339.165 28.1184L336.88 29.1499L336.493 29.3213L336.084 29.4976L335.653 29.6796L335.037 29.9334L334.542 30.1333L333.832 30.4148L332.607 30.8908L327.555 32.8159L326.829 33.0969L325.905 33.4592L325.245 33.722L324.611 33.9778L323.806 34.3086L323.231 34.5497L322.862 34.7072L322.503 34.8624L322.154 35.0154L321.815 35.1663L321.485 35.3153L321.009 35.5353L320.554 35.7517L320.261 35.8941L319.977 36.0353L319.702 36.1752L319.434 36.3141L319.174 36.4522L318.922 36.5894C318.881 36.6122 318.84 36.635 318.799 36.6578L318.558 36.7941L318.324 36.9299L318.087 37.0714L317.851 37.2171L317.628 37.3605L317.415 37.5016C317.381 37.5249 317.347 37.548 317.314 37.5711L317.12 37.7083C317.025 37.7763 316.936 37.8432 316.85 37.909L316.686 38.0391C316.633 38.082 316.582 38.1243 316.533 38.1661L316.391 38.29C315.849 38.7788 315.588 39.1874 315.6 39.4769C315.609 39.6863 315.77 39.9308 316.104 40.1973L316.209 40.2779C316.264 40.3185 316.323 40.3596 316.386 40.4011L316.518 40.4846L316.66 40.5692L316.813 40.6547C316.866 40.6834 316.921 40.7122 316.977 40.7412L317.153 40.8284C317.183 40.843 317.213 40.8576 317.244 40.8723L317.437 40.9606C317.502 40.9902 317.57 41.0198 317.64 41.0495L317.855 41.139C317.892 41.1539 317.929 41.1689 317.967 41.1839L318.199 41.274L318.444 41.3644C318.527 41.3946 318.613 41.4249 318.7 41.4551L318.968 41.546L319.249 41.637C319.297 41.6521 319.345 41.6673 319.394 41.6825L319.439 41.6957L319.54 41.7211C319.558 41.7252 319.576 41.7293 319.595 41.7333L319.718 41.7565L319.854 41.7783C319.878 41.7818 319.903 41.7853 319.928 41.7887L320.086 41.8085L320.259 41.827L320.447 41.8442L320.756 41.8677L321.099 41.8885L321.346 41.901L321.745 41.9177L322.947 41.9539L323.314 41.9636L324.058 41.9796C324.308 41.9842 324.559 41.9881 324.812 41.9913L325.575 41.9989C325.703 41.9998 325.832 42.0005 325.96 42.0011L326.736 42.0024L327.517 41.9996L328.305 41.9929L329.096 41.9821L329.89 41.9675L330.686 41.9491L331.483 41.9268C331.616 41.9228 331.748 41.9186 331.881 41.9143L332.677 41.8865C332.942 41.8767 333.206 41.8662 333.47 41.8551L334.26 41.8202C334.392 41.814 334.523 41.8078 334.654 41.8013L335.437 41.7611L336.214 41.7175L336.983 41.6705L337.744 41.6202L338.495 41.5666L339.235 41.5099C339.357 41.5001 339.479 41.4903 339.601 41.4803L340.323 41.4189C340.918 41.3665 341.5 41.3109 342.064 41.2522L342.733 41.1804C342.843 41.1682 342.952 41.1559 343.061 41.1435L343.703 41.0675C344.019 41.0288 344.327 40.9891 344.628 40.9483L345.238 40.8632L346.254 40.7153L347.588 40.5131L348.859 40.3148L350.733 40.0151L353.081 39.6304L355.087 39.2961L358.615 38.6987L363.791 37.8064L368.873 36.9175L377.566 35.3771L386.622 33.7537L392.342 32.72L407.378 29.9838L430.01 25.8458L431.358 25.6099L433.179 25.2956L435.024 24.9827L436.418 24.7495L438.289 24.4416L440.166 24.138L442.044 23.8397L443.45 23.6202L444.851 23.4047L446.244 23.1938L447.627 22.9879L448.542 22.8536L449.903 22.657L451.248 22.4665L452.134 22.3433L453.011 22.223L454.307 22.0488L455.579 21.8823L456.824 21.7239L457.637 21.623L458.437 21.5262L459.608 21.3885L460.745 21.2606L461.482 21.1808L462.201 21.1057L462.861 21.0392L464.046 20.9227L465.163 20.8166L466.219 20.7206L467.22 20.6346L468.172 20.5585L468.631 20.5241L469.302 20.4771L469.737 20.4487L470.165 20.4227L470.585 20.399L470.998 20.3777L471.607 20.35L472.206 20.3274L472.6 20.3153L473.186 20.3012L473.575 20.2945L474.156 20.2887L474.543 20.2875L474.932 20.2885L475.321 20.2916L475.911 20.3002L476.508 20.3136L476.912 20.325C477.573 20.3453 478.15 20.6169 478.28 21.3036L478.3 21.4224L478.312 21.4731L478.331 21.5343L478.358 21.6094L478.414 21.7551L478.515 22.0039C478.99 23.1867 478.944 24.096 477.905 24.9242L477.816 24.9943L477.637 25.1331L477.453 25.2703C477.422 25.2931 477.391 25.3158 477.36 25.3385L477.17 25.4743C477.138 25.4969 477.106 25.5195 477.073 25.5421L476.875 25.6775L476.67 25.8132L476.458 25.9498C476.422 25.9727 476.385 25.9956 476.349 26.0185L476.125 26.1572L475.892 26.2978L475.65 26.4409L475.397 26.5869L475.134 26.7362L474.859 26.8894L474.423 27.1275L473.957 27.3768L473.459 27.639L471.212 28.7974L470.752 29.0375L470.337 29.2574L469.933 29.476L469.652 29.6317C469.607 29.6573 469.561 29.6828 469.516 29.7082L469.254 29.8587L469.003 30.0057L468.764 30.1495C468.725 30.1732 468.687 30.1967 468.649 30.2201L468.428 30.3591L468.219 30.4949L468.021 30.6276C467.989 30.6494 467.957 30.6712 467.926 30.6928L467.745 30.821C467.716 30.8422 467.687 30.8632 467.659 30.8841L467.495 31.008C467.469 31.0284 467.443 31.0487 467.417 31.0689L467.27 31.1886C466.702 31.6622 466.395 32.0712 466.319 32.4355L466.313 32.4641L467.586 32.4823L469.469 32.5157L470.405 32.5273L470.914 32.5306L471.542 32.5305L472.123 32.5249L472.535 32.5169L472.931 32.5055L473.318 32.4905L473.699 32.4719L474.062 32.4501L474.4 32.4245L474.619 32.4045L474.837 32.3817L475.057 32.3558L475.281 32.3264L475.513 32.2931L475.757 32.2556L476.151 32.1907L476.436 32.141L477.83 31.8882L478.238 31.8187L478.695 31.7481L479 33.8312L478.649 33.885L478.224 33.9565L476.941 34.1895L476.478 34.2705L476.193 34.3179L475.925 34.3604L475.668 34.3983L475.421 34.432L475.18 34.4619C475.14 34.4665 475.1 34.4711 475.06 34.4755L474.821 34.5003L474.58 34.5222C474.54 34.5257 474.499 34.529 474.458 34.5322L474.207 34.5504L473.946 34.5666L473.68 34.581L473.28 34.5993L472.875 34.6137L472.458 34.6245L472.172 34.6297L471.573 34.6357L471.093 34.6364L470.404 34.6327L469.647 34.6238L466.611 34.5729L466.169 34.5683C466.095 34.5677 466.02 34.5663 465.947 34.5641L465.736 34.5551C465.702 34.5532 465.669 34.5511 465.638 34.5487C465.525 34.5404 465.428 34.5294 465.338 34.5127C465.258 34.4982 465.184 34.4797 465.104 34.4502C465.03 34.4226 464.956 34.388 464.879 34.3382C464.727 34.2401 464.593 34.1068 464.495 33.9075C463.846 32.5823 464.21 31.2807 465.333 30.1175C465.86 29.5716 466.544 29.0487 467.45 28.4836L467.744 28.3037C467.945 28.1827 468.155 28.0595 468.377 27.9335L468.717 27.7425L469.074 27.5467L469.342 27.4023L469.622 27.2529L470.241 26.9293L472.295 25.8712L472.934 25.5362L473.232 25.3775L473.653 25.1491L473.919 25.0028L474.295 24.7912L474.532 24.6548L474.758 24.5216L474.975 24.3913L475.183 24.2633L475.383 24.1374L475.574 24.0131L475.758 23.89C475.788 23.8695 475.818 23.8491 475.848 23.8287L476.022 23.7066C476.051 23.6863 476.079 23.666 476.108 23.6457L476.274 23.5237C476.301 23.5033 476.328 23.4829 476.355 23.4625L476.514 23.3397L476.659 23.2248C476.699 23.1875 476.704 23.1574 476.668 23.0581L476.642 22.9897L476.44 22.4895L476.412 22.4168L476.066 22.409L475.49 22.3991L474.919 22.3939L474.351 22.3934L473.974 22.3956L473.406 22.4031L472.834 22.4154L472.257 22.4326L471.868 22.4468L471.474 22.4633L470.873 22.4923L470.257 22.5264L469.625 22.5658L468.973 22.6104L468.527 22.6431L467.602 22.7156L466.63 22.7979L465.865 22.8661L464.795 22.9658L463.366 23.1046L462.432 23.1983L461.756 23.2688L460.712 23.3823L459.997 23.463L459.268 23.5476L458.525 23.6359L457.769 23.7279L456.612 23.8725L455.429 24.0247L454.222 24.1841L452.993 24.3502L451.745 24.5228L450.903 24.6413L449.627 24.8237L448.768 24.9483L447.469 25.1395L445.722 25.4018L444.402 25.6034L443.076 25.8089L441.304 26.0883L439.53 26.3728L438.153 26.5971C436.098 26.934 434.058 27.2782 432.068 27.6233L430.039 27.9809L406.632 32.2599L389.411 35.3898L380.62 36.9701L372.461 38.4224L367.644 39.2709L362.437 40.1779L358.454 40.8619L354.87 41.467L352.243 41.9022L350.392 42.2024L348.943 42.4327L348.048 42.5723L347.3 42.687L346.085 42.8681L345.218 42.9922C344.917 43.0344 344.607 43.0757 344.29 43.1159L343.645 43.1948L342.982 43.2709L342.301 43.3441C341.957 43.38 341.606 43.4148 341.249 43.4484L340.529 43.5141L339.795 43.5766C339.672 43.5868 339.548 43.5968 339.423 43.6067L338.671 43.6645C338.545 43.6739 338.418 43.6831 338.291 43.6922L337.522 43.7451C337.394 43.7536 337.265 43.762 337.135 43.7703L336.354 43.8181C336.092 43.8335 335.829 43.8483 335.565 43.8625L334.77 43.9034L333.97 43.9408L333.167 43.9745L332.36 44.0046C332.225 44.0093 332.091 44.0139 331.956 44.0183L331.148 44.0428L330.339 44.0634C330.205 44.0665 330.07 44.0695 329.936 44.0723L329.13 44.0871C328.861 44.0914 328.594 44.0951 328.327 44.098L327.528 44.1049L326.735 44.1077L325.948 44.1063L325.169 44.1007L324.398 44.0909L323.638 44.0768C323.512 44.0741 323.386 44.0712 323.261 44.0681L321.813 44.0267L321.503 44.0152L321.209 44.0025L320.932 43.9885L320.671 43.9729L320.424 43.9556L320.191 43.9363C320.116 43.9296 320.043 43.9225 319.973 43.9151L319.767 43.8915L319.573 43.8656C319.511 43.8565 319.45 43.847 319.392 43.837L319.221 43.8056C319.166 43.7946 319.112 43.7832 319.061 43.7712L318.91 43.7337C318.862 43.7206 318.814 43.707 318.769 43.6928L318.602 43.6404L318.276 43.5344C317.796 43.3743 317.351 43.2089 316.942 43.0376L316.675 42.9225C314.623 42.0134 313.554 40.9347 313.497 39.5645C313.433 38.0495 314.628 36.73 316.858 35.3552L317.13 35.1899L317.376 35.0455L317.628 34.901L317.886 34.7564L318.152 34.6114L318.425 34.466L318.705 34.32L318.993 34.1732L319.289 34.0255L319.749 33.802L320.067 33.6514L320.394 33.4994L320.729 33.3458L321.251 33.1122L321.795 32.8742L322.17 32.7128L322.753 32.4665L323.155 32.2991L323.779 32.043L324.21 31.8686L325.107 31.5107L325.813 31.2335L326.547 30.9483L328.828 30.0771L331.894 28.9095L332.87 28.5308L333.579 28.2508L334.073 28.0526L334.685 27.8021L335.112 27.6232L335.515 27.4508L335.895 27.2841L336.137 27.1755L337.766 26.4399L339.887 25.4855L341.443 24.7883L343.476 23.8817L345.465 22.9991L347.901 21.9262L349.814 21.0893L351.702 20.2689L353.105 19.6631L354.963 18.866L356.35 18.275L357.568 17.759L358.255 17.4746L358.859 17.23L359.727 16.8873L360.982 16.4038L362.868 15.6908L365.323 14.7682L366.743 14.2273L367.683 13.8629L368.396 13.5817L369.053 13.3174L369.543 13.1158L370.007 12.9212L370.661 12.6386L370.972 12.4999L371.276 12.3621L371.77 12.1322L372.158 11.9463L372.447 11.8046C374.46 10.8088 375.728 9.79237 377.076 8.26492L377.207 8.11549C377.225 8.09425 377.234 8.08269 377.228 8.04045L377.219 7.99578L377.191 7.88825L377.128 7.67038L377.051 7.41296L377.02 7.30042L376.994 7.1979L376.971 7.09331L376.954 7.00159L376.94 6.91116L376.921 6.75467L376.872 6.74198L376.8 6.72531L376.75 6.71523L376.643 6.69649C376.624 6.69353 376.605 6.69065 376.586 6.68785L376.464 6.67203L376.333 6.65819L376.192 6.64633L376.041 6.6365L375.879 6.62872L375.708 6.623L375.525 6.61937L375.232 6.6179C375.198 6.618 375.164 6.61819 375.129 6.61848L374.914 6.62127L374.689 6.62624L374.329 6.63785L373.944 6.65451L373.533 6.6763L373.096 6.70331L372.632 6.73561L371.97 6.78705L371.621 6.8164L371.095 6.86301L370.137 6.95326L369.204 7.04817L368.427 7.1328L367.477 7.2434L366.311 7.38834L365.237 7.52938L363.652 7.74654L361.348 8.07393L357.546 8.61647L352.878 9.25816L349.903 9.67183L346.646 10.1307L344.881 10.3827L342.356 10.7484L341.145 10.9262L339.581 11.1588L337.701 11.443L335.898 11.7212L334.507 11.9402L332.825 12.2106L331.845 12.3715L330.252 12.6382L329.319 12.7978L328.099 13.0107L327.199 13.1707L326.017 13.3851L325.433 13.4929L324.563 13.6556L323.129 13.93L321.991 14.1532L320.575 14.4378L320.008 14.5536L319.123 14.7371L315.293 15.542L311.827 16.2749L306.989 17.3052L303.446 18.0652L297.938 19.2556L289.125 21.178L278.974 23.4108L248.075 30.2487L238.264 32.4184L234.384 33.2887L231.065 34.0472L228.563 34.6322L227.278 34.938L225.68 35.3234L216.227 37.6399L201.83 41.1897L181.822 46.1546L131.704 58.6241L120.23 61.4638L101.3 66.1213L90.1928 68.828L85.4359 69.9747L81.1556 70.9978L78.1145 71.7193L75.4682 72.3435L72.8618 72.9546L70.9168 73.4024L69.2048 73.7898L67.7373 74.1171L65.6069 74.5855L63.6972 74.9993L61.3552 75.5003L58.505 76.1024L54.4569 76.9486L52.1218 77.4563L47.0531 78.5684L46.1264 78.7669L45.3825 78.9217L44.9188 79.0122L44.5683 79.0736L44.0648 79.1562L43.5536 79.233L43.0298 79.3045L42.5983 79.3582L42.2657 79.3964L41.8081 79.445L41.3321 79.4909L40.8351 79.5343L40.3145 79.5755L39.4837 79.6335L38.8928 79.6698L37.9445 79.7215L36.9141 79.7701L35.7929 79.8165L33.9218 79.8832L31.6236 79.9529L30.7477 79.975L30.1028 79.9881L29.3618 79.9979L28.9498 80L28.5608 79.999L28.1936 79.9946L27.9602 79.9898L27.7357 79.9834L27.5196 79.9753L27.3115 79.9656L27.1112 79.954L26.8244 79.9332L26.6418 79.9169L26.4657 79.8987L26.2957 79.8784L26.1315 79.856L25.9726 79.8315L25.8188 79.8048L25.6698 79.7758L25.525 79.7446L25.3842 79.7109L25.2471 79.6748L25.1132 79.6362L24.9823 79.5951L24.8538 79.5513L24.7276 79.5049L24.6033 79.4558L24.4804 79.404L24.3587 79.3492L24.2377 79.2916L24.1172 79.2311L23.9364 79.1346L23.7546 79.0312L23.6322 78.9583L23.4459 78.8429L23.3194 78.7619L23.0594 78.5895L22.8568 78.4512L22.7875 78.4033C21.6065 77.5839 20.9206 76.621 20.7474 75.5336L20.7099 75.2958L20.6393 74.8321L20.5745 74.3838L20.5157 73.9498C20.5065 73.8786 20.4974 73.808 20.4886 73.7379L20.439 73.3239C20.1833 71.0811 20.2102 69.3911 20.5917 67.5904C21.247 64.4975 22.9772 61.8019 26.0517 59.4337C26.8436 58.8238 27.6693 58.2121 28.5291 57.5984L29.1074 57.189C29.7879 56.7109 30.4892 56.2316 31.2112 55.7508L31.8352 55.3382C32.7788 54.7189 33.7569 54.097 34.7697 53.4722L35.4501 53.0553C35.7929 52.8466 36.1395 52.6375 36.49 52.4282L37.1961 52.0089L37.9126 51.5887L38.6395 51.1676L39.3768 50.7454C39.5005 50.6749 39.6247 50.6044 39.7493 50.5339L40.5022 50.1102L41.2655 49.6854L42.0393 49.2595L42.8235 48.8325L43.6182 48.4043L44.4234 47.975C44.6936 47.8317 44.9655 47.6882 45.2392 47.5445L46.0655 47.1127C46.2041 47.0407 46.3431 46.9686 46.4826 46.8964L47.3247 46.4628C47.4659 46.3904 47.6076 46.318 47.7497 46.2455L48.6077 45.8099L49.4763 45.3731L50.3556 44.9349L51.2455 44.4953L52.1461 44.0543L53.0573 43.6119L53.9792 43.168L54.9119 42.7227L55.8553 42.2759L56.8095 41.8275L57.7744 41.3776L58.7501 40.9262L59.7367 40.4731L60.734 40.0184L61.7422 39.5621L62.7613 39.1041L63.7912 38.6444L64.8321 38.1829L65.7582 37.7748L66.9506 37.2524L68.1194 36.7433L69.2906 36.2364L70.8591 35.5624L72.4393 34.8889L73.6347 34.3832L74.8409 33.8761L76.0596 33.3668L77.7073 32.6832L78.9625 32.1661L80.6652 31.4692L81.9664 30.9402L83.7372 30.2247L85.5528 29.4962L86.9464 28.9402L88.8505 28.1846L90.8111 27.4111L93.3477 26.4164L95.9876 25.3874L98.7391 24.3209L102.2 22.9865L106.475 21.3471L111.701 19.3529L125.369 14.1627L128.978 12.8023L132.177 11.6072L134.477 10.757L136.262 10.104L137.802 9.54614L139.053 9.09677L140.302 8.65195L141.463 8.24162L142.641 7.82805L143.545 7.51294L144.564 7.16375L145.285 6.92162L146.157 6.63394L147.366 6.24396L149.042 5.71424L151.425 4.97424L156.691 3.35155L158.631 2.74415L133.362 6.25775L126.928 7.15991L120.807 8.02727L115.308 8.81781L110.578 9.50969L106.719 10.0841L104.199 10.4646L102.706 10.6922L100.008 11.1069L95.9517 11.7378L91.5567 12.4267L88.2995 12.9409L84.1885 13.5943L78.6723 14.4791L72.9645 15.4037L66.4283 16.4724L55.3188 18.3072L43.1437 20.335L8.80054 26.0807L-0.57444 27.5992L-4.12214 28.1862L-6.00526 28.5055L-7.91615 28.838L-9.32809 29.0911L-10.8145 29.3662L-12.0633 29.6057L-13.2609 29.8438L-14.1354 30.0232L-14.4374 30.0863C-14.9397 30.1917 -15.4368 30.2985 -15.9348 30.4079L-16.5333 30.5404L-18.3242 30.9409L-20.9668 31.5348L-22.7073 31.928L-24.437 32.3204L-28.1907 33.1782L-32.2006 34.1037L-37.1479 35.2585L-41.4606 36.2754L-45.5473 37.2465L-51.8939 38.7661L-60.6171 40.8708L-95.7187 49.3912L-101.398 50.7543L-104.512 51.4974L-105 49.4494L-100.356 48.3401L-89.775 45.7887L-63.1685 39.3226L-54.2664 37.1715L-48.7232 35.8406L-44.1409 34.7475L-39.8198 33.7243L-36.7138 32.9943L-33.1984 32.1741L-30.2486 31.4914L-26.845 30.7101L-23.9307 30.0466L-20.0029 29.1599L-16.387 28.3517L-15.7831 28.2203L-14.5694 27.9631L-13.4886 27.7419L-12.6984 27.5848L-12.0518 27.4589L-10.8816 27.2366L-10.0097 27.0753L-8.53944 26.8103L-7.16393 26.569L-5.2519 26.2416L-2.65899 25.8083L-0.295731 25.4206L9.58026 23.8186L44.5474 17.9662L57.9502 15.737L65.2627 14.5305L72.518 13.3434L78.8517 12.3178L84.0304 11.4876L86.823 11.0433L90.077 10.5286L93.9351 9.92228L97.8643 9.30887L99.887 8.99528L102.387 8.61116L106.088 8.05005L108.965 7.62028L113.615 6.93638L116.418 6.53005L121.674 5.77729L128.84 4.76503L138.709 3.38691L158.369 0.655372L158.823 0.594607L159.289 0.535564L159.77 0.47777L160.442 0.401831L161.156 0.32614L161.923 0.249571L163.414 0.110074L164.122 0.0469145L164.343 0.0299988C164.383 0.0273327 164.423 0.0247663 164.465 0.0223339L164.717 0.00962489C164.8 0.00610892 164.882 0.00340532 164.958 0.00179004Z" fill="#093F68"/>
</svg>
