<svg width="172" height="231" viewBox="0 0 172 231" fill="none" xmlns="http://www.w3.org/2000/svg">
<path d="M23.5947 205.723L17.0708 224.17H35.4953L23.5947 205.723Z" fill="#080C20"/>
<path fill-rule="evenodd" clip-rule="evenodd" d="M17.0708 224.793H35.4953L35.5201 224.824C35.7466 224.824 35.955 224.699 36.0635 224.499C36.1719 224.3 36.1633 224.056 36.041 223.865L24.1404 205.418C24.0077 205.209 23.7641 205.098 23.5203 205.137C23.2869 205.166 23.09 205.326 23.0118 205.548L16.4879 223.964C16.4217 224.155 16.4511 224.365 16.5668 224.529C16.6826 224.694 16.8703 224.792 17.0708 224.793ZM34.3542 223.547H17.9514L23.7559 207.124L34.3542 223.547Z" fill="#093F68"/>
<path d="M91.5375 141.114C90.0139 140.763 88.4279 140.79 86.9174 141.195C81.645 142.777 77.1343 146.247 74.2417 150.948C73.7403 148.602 74.562 146.169 76.3812 144.614C72.8535 144.674 69.6141 146.583 67.8418 149.646C66.4093 152.181 65.8201 156.609 67.7364 159.094C69.4232 161.274 72.5053 160.875 74.2417 162.613C75.3207 163.697 75.7052 167.595 76.2758 169.096C77.7269 173.014 79.4447 176.825 81.026 180.693L115.481 174.253C115.481 174.253 114.904 165.652 113.621 158.621C112.337 151.59 107.469 142.777 99.2459 146.302C98.7818 145.357 98.107 144.532 97.2738 143.892C95.6153 142.511 93.6462 141.557 91.5375 141.114Z" fill="#093F68"/>
<path fill-rule="evenodd" clip-rule="evenodd" d="M80.4556 180.929C80.5507 181.162 80.7758 181.314 81.0261 181.315L81.1501 181.309L115.599 174.832C115.897 174.777 116.113 174.514 116.108 174.209C116.103 174.196 116.086 173.982 116.055 173.604C115.886 171.517 115.314 164.426 114.216 158.509C113.36 153.888 110.929 148.139 106.681 145.854C104.469 144.67 101.846 144.545 99.5312 145.511C99.0318 144.714 98.403 144.007 97.6708 143.418C95.9429 141.974 93.8912 140.974 91.6926 140.504C90.0561 140.127 88.3527 140.159 86.7314 140.597C81.9135 142.047 77.6968 145.034 74.7193 149.105C74.8425 147.547 75.5791 146.104 76.7657 145.094C76.9667 144.926 77.0411 144.649 76.9518 144.402C76.863 144.156 76.6299 143.992 76.3688 143.991C72.6189 144.045 69.1731 146.074 67.2961 149.335C65.6962 152.175 65.2187 156.858 67.2403 159.474C68.2613 160.802 69.7338 161.279 71.0344 161.7L71.0666 161.71C72.0672 161.938 73.0014 162.396 73.7952 163.049C74.3693 163.632 74.7898 165.566 75.0994 166.99L75.1038 167.01C75.248 167.79 75.4427 168.56 75.6867 169.314C76.5701 171.684 77.5634 174.043 78.532 176.343C78.6174 176.546 78.7025 176.748 78.7874 176.95C79.3538 178.278 79.9099 179.605 80.4556 180.929ZM68.3814 149.952C69.7586 147.555 72.1142 145.886 74.8247 145.386C73.6391 147.037 73.2063 149.115 73.634 151.104C73.6908 151.349 73.889 151.536 74.1363 151.577C74.3815 151.615 74.6254 151.502 74.7565 151.291C77.564 146.718 81.9474 143.343 87.0725 141.805C88.4919 141.425 89.9829 141.401 91.4135 141.737C93.4092 142.161 95.2718 143.067 96.8398 144.378C97.6047 144.954 98.2265 145.7 98.6568 146.557C98.7212 146.711 98.844 146.832 98.9979 146.894C99.1507 146.958 99.3226 146.958 99.4754 146.894C101.863 145.866 104.089 145.891 106.092 146.968C109.956 149.049 112.226 154.616 112.988 158.752C114.111 164.656 114.694 171.756 114.849 173.761L81.4354 179.989C81.0578 179.082 80.6765 178.178 80.2943 177.273C80.1807 177.003 80.067 176.734 79.9533 176.464C78.8866 173.991 77.8014 171.432 76.8526 168.878C76.6326 168.18 76.4545 167.468 76.3192 166.748C76.3111 166.711 76.303 166.674 76.2949 166.638C75.8998 164.835 75.4962 162.995 74.6759 162.171C73.7503 161.366 72.6435 160.799 71.4511 160.52C70.2046 160.122 69.0201 159.742 68.2264 158.714C66.5706 156.572 66.9675 152.443 68.3814 149.952Z" fill="#093F68"/>
<ellipse cx="77.229" cy="179.514" rx="4.86882" ry="5.46112" transform="rotate(-10.55 77.229 179.514)" fill="#080C20"/>
<path fill-rule="evenodd" clip-rule="evenodd" d="M71.8479 180.562C72.3875 183.52 74.7874 185.619 77.4292 185.619C77.7394 185.621 78.049 185.592 78.3532 185.532C79.8267 185.25 81.1066 184.341 81.8633 183.041C83.4975 180.237 82.8346 176.654 80.3067 174.627C79.1333 173.685 77.6113 173.298 76.1331 173.568C73.1626 174.122 71.2278 177.261 71.8479 180.562ZM78.1176 184.311C75.8107 184.735 73.5409 182.953 73.0572 180.331H73.0696C72.5797 177.71 74.0619 175.218 76.3626 174.789C77.4933 174.591 78.6543 174.89 79.5501 175.611C81.5693 177.257 82.0954 180.134 80.7904 182.393C80.2165 183.389 79.2422 184.089 78.1176 184.311Z" fill="#093F68"/>
<path d="M97.2117 193.896C107.717 191.934 114.712 177.155 112.784 166.773L110.464 168.181C110.464 168.181 102.489 161.43 101.119 153.315C101.119 153.315 98.8799 158.621 89.6026 160.838C79.5067 163.242 73.4417 162.208 73.4417 162.208L76.1889 178.376C78.1175 188.733 86.7313 195.864 97.2117 193.896Z" fill="#080C20"/>
<path fill-rule="evenodd" clip-rule="evenodd" d="M83.1099 191.262C86.1789 193.605 89.9333 194.864 93.7887 194.843C94.9692 194.829 96.1461 194.708 97.3049 194.481C102.328 193.541 107.023 189.63 110.185 183.757C113.15 178.251 114.34 171.849 113.373 166.624C113.335 166.423 113.202 166.254 113.016 166.171C112.831 166.088 112.617 166.101 112.443 166.206L110.514 167.39C109.013 166.02 102.874 160.041 101.714 153.19C101.669 152.916 101.448 152.705 101.173 152.673C100.898 152.642 100.636 152.796 100.53 153.053C100.511 153.103 98.26 158.11 89.4353 160.209C80.0524 162.45 74.1448 161.661 73.5737 161.585C73.5465 161.581 73.5315 161.579 73.5286 161.579C73.3313 161.546 73.1302 161.611 72.9888 161.753C72.8473 161.895 72.7828 162.097 72.8155 162.295L75.5689 178.488C76.4141 183.539 79.1025 188.093 83.1099 191.262ZM76.8092 178.27L74.1984 162.943C76.1891 163.142 81.6959 163.373 89.7454 161.455C96.3561 159.879 99.5064 156.777 100.84 154.965C102.855 162.495 109.751 168.405 110.061 168.667C110.266 168.841 110.558 168.863 110.787 168.723L112.319 167.788C112.951 172.559 111.779 178.214 109.112 183.196C106.13 188.739 101.751 192.414 97.1003 193.286C92.4608 194.226 87.6424 193.129 83.8602 190.271C80.1088 187.288 77.5956 183.01 76.8092 178.27Z" fill="#093F68"/>
<ellipse cx="92.4588" cy="170.752" rx="1.76146" ry="1.76848" transform="rotate(-10.55 92.4588 170.752)" fill="#093F68"/>
<ellipse cx="79.8479" cy="172.397" rx="1.76121" ry="1.76874" fill="#093F68"/>
<path d="M86.8679 178.413H86.6136C86.2993 178.395 86.0119 178.229 85.8384 177.965C85.1129 176.919 85.95 173.805 86.3469 172.509C86.407 172.29 86.5809 172.122 86.8009 172.069C87.0208 172.016 87.2519 172.088 87.4039 172.256C87.5559 172.424 87.6048 172.662 87.5314 172.877C86.9733 174.714 86.6632 176.613 86.8182 177.174C87.6669 177.142 88.5047 176.972 89.2988 176.669C89.6128 176.572 89.9482 176.737 90.0634 177.046C90.1787 177.355 90.0337 177.701 89.7329 177.834C88.8127 178.172 87.8466 178.367 86.8679 178.413Z" fill="#093F68"/>
<path d="M89.5965 165.166C89.1534 165.204 88.7239 165.002 88.4697 164.635C88.2155 164.269 88.1753 163.794 88.3643 163.39C88.5532 162.985 88.9426 162.713 89.3857 162.675L97.6708 161.237C98.1082 161.158 98.5542 161.32 98.8399 161.662C99.1257 162.003 99.2075 162.473 99.0544 162.892C98.9013 163.311 98.5367 163.615 98.0987 163.69L89.8322 165.148C89.7544 165.161 89.6755 165.168 89.5965 165.166Z" fill="#093F68"/>
<path d="M75.0478 167.359C74.3628 167.398 73.7756 166.873 73.7362 166.185C73.6968 165.497 74.2202 164.907 74.9052 164.867L83.2523 163.877C83.6954 163.825 84.1327 164.014 84.3993 164.373C84.6659 164.733 84.7215 165.207 84.545 165.619C84.3686 166.03 83.9869 166.316 83.5438 166.368L75.1967 167.359H75.0478Z" fill="#093F68"/>
<path d="M109.267 168.804C109.267 168.804 113.249 164.768 116.467 168.399C119.686 172.03 118.607 179.453 110.669 178.837" fill="#080C20"/>
<path d="M111.605 179.497C111.289 179.497 110.985 179.497 110.625 179.453C110.283 179.428 110.026 179.128 110.052 178.784C110.078 178.44 110.376 178.182 110.718 178.208C113.751 178.444 115.984 177.448 116.994 175.399C117.979 173.196 117.593 170.619 116.008 168.804C115.391 168.026 114.473 167.55 113.484 167.496C111.518 167.433 109.72 169.208 109.708 169.227C109.591 169.345 109.433 169.411 109.267 169.411C109.102 169.411 108.944 169.345 108.827 169.227C108.587 168.984 108.587 168.592 108.827 168.349C108.914 168.262 111.022 166.194 113.515 166.25C114.847 166.309 116.091 166.937 116.932 167.975C118.866 170.16 119.326 173.288 118.104 175.941C117.435 177.317 115.711 179.497 111.605 179.497Z" fill="#093F68"/>
<path fill-rule="evenodd" clip-rule="evenodd" d="M87.4755 173.113C87.6252 174.335 88.6556 175.255 89.8816 175.262C89.9956 175.264 90.1096 175.258 90.2227 175.243L98.3156 174.265C98.9564 174.189 99.5407 173.86 99.9397 173.351C100.339 172.841 100.52 172.193 100.443 171.55L99.8225 166.518C99.8042 166.354 99.7216 166.204 99.5931 166.101C99.4636 165.997 99.2984 165.95 99.1342 165.97L87.3949 167.384C87.2305 167.404 87.0809 167.489 86.9794 167.62C86.8803 167.75 86.8358 167.913 86.8553 168.075L87.4755 173.113ZM88.7096 172.976L88.1762 168.561L98.6381 167.296L99.1652 171.712C99.2418 172.368 98.7764 172.964 98.1233 173.045L90.0305 174.023C89.3782 174.099 88.7872 173.631 88.7096 172.976Z" fill="#093F68"/>
<path fill-rule="evenodd" clip-rule="evenodd" d="M72.9582 174.87C73.1056 176.095 74.1411 177.018 75.3705 177.018L75.693 177L83.7548 176.022C85.0868 175.86 86.0361 174.644 85.8757 173.306L85.2556 168.268C85.2136 167.928 84.906 167.686 84.5672 167.726L72.8775 169.14C72.7131 169.16 72.5635 169.245 72.462 169.377C72.363 169.506 72.3184 169.669 72.338 169.831L72.9582 174.87ZM74.1922 174.733L73.6589 170.317L84.1393 169.04L84.6727 173.456C84.7491 174.111 84.283 174.704 83.6308 174.782L75.5131 175.773C75.1999 175.815 74.883 175.728 74.6343 175.532C74.3856 175.336 74.2262 175.048 74.1922 174.733Z" fill="#093F68"/>
<path d="M99.407 169.14C99.0645 169.161 98.7702 168.898 98.7497 168.554C98.7291 168.21 98.9901 167.915 99.3326 167.894L107.258 166.935C107.601 166.896 107.91 167.142 107.949 167.486C107.989 167.83 107.743 168.141 107.401 168.181L99.4814 169.14H99.407Z" fill="#093F68"/>
<path d="M89.3485 184.641C88.0838 184.626 86.8288 184.416 85.6276 184.018C85.416 183.952 85.256 183.777 85.2077 183.559C85.1595 183.342 85.2304 183.115 85.3938 182.964C85.5571 182.814 85.7881 182.762 85.9997 182.829C89.4718 184.067 93.3426 183.222 95.9902 180.649C97.3478 179.391 98.4622 177.892 99.277 176.227C99.4157 175.913 99.7822 175.77 100.096 175.91C100.409 176.049 100.551 176.417 100.412 176.732C100.375 176.85 96.846 184.641 89.3485 184.641Z" fill="#093F68"/>
<path d="M87.8167 170.716L84.9702 170.965L87.8167 170.716Z" fill="#FFC9B0"/>
<path d="M84.9703 171.587C84.6485 171.589 84.3791 171.343 84.3501 171.021C84.3347 170.855 84.3855 170.691 84.4915 170.563C84.5975 170.436 84.7497 170.356 84.9145 170.342L87.7547 170.099C88.0931 170.07 88.3917 170.32 88.4245 170.659C88.44 170.825 88.3891 170.989 88.2831 171.117C88.1771 171.244 88.0249 171.324 87.8602 171.338L85.0199 171.587H84.9703Z" fill="#093F68"/>
<path d="M65.8883 180.263H16.6551C15.9939 180.262 15.3752 180.59 15.0028 181.139C14.6303 181.687 14.5524 182.385 14.7947 183.003L28.1092 217.438H81.6461L67.7487 181.527C67.4444 180.763 66.7075 180.263 65.8883 180.263Z" fill="#080C20"/>
<path fill-rule="evenodd" clip-rule="evenodd" d="M28.1218 218.06H81.6402C81.842 218.057 82.0294 217.954 82.1425 217.786C82.2573 217.618 82.2827 217.404 82.2107 217.213L68.3133 181.303C67.9211 180.296 66.9526 179.635 65.8761 179.64H16.6554C15.7918 179.646 14.9866 180.079 14.5022 180.797C14.0178 181.515 13.9162 182.426 14.2306 183.234L27.5451 217.662C27.6371 217.901 27.8661 218.06 28.1218 218.06ZM80.7348 216.815H28.5497L15.3717 182.754C15.2133 182.33 15.2715 181.856 15.5275 181.483C15.7834 181.111 16.2047 180.888 16.6554 180.886H65.8885C66.4541 180.884 66.9633 181.23 67.1722 181.758L80.7348 216.815Z" fill="#093F68"/>
<path d="M63.9473 183.589L19.5203 183.539L32.0782 215.463L76.3502 215.507L63.9473 183.589Z" fill="#080C20"/>
<path fill-rule="evenodd" clip-rule="evenodd" d="M32.0782 216.092L76.3502 216.136C76.5578 216.13 76.7487 216.02 76.8587 215.843C76.9756 215.673 77.0012 215.457 76.9269 215.264L64.5241 183.34C64.432 183.1 64.203 182.942 63.9473 182.941L19.5203 182.897C19.314 182.897 19.1211 183 19.0056 183.171C18.8907 183.342 18.8675 183.559 18.9436 183.751L31.5015 215.7C31.5955 215.937 31.824 216.093 32.0782 216.092ZM75.4448 214.89L32.4999 214.847L20.4319 184.168L63.5256 184.211L75.4448 214.89Z" fill="#093F68"/>
<path fill-rule="evenodd" clip-rule="evenodd" d="M55.8612 190.644C56.3965 191.952 57.6651 192.806 59.0731 192.806C60.9725 192.796 62.5155 191.263 62.5459 189.356C62.5609 187.942 61.7244 186.659 60.428 186.107C59.1316 185.555 57.6318 185.845 56.6309 186.839C55.6299 187.833 55.3259 189.336 55.8612 190.644ZM56.8408 189.314C56.8464 188.08 57.8441 187.083 59.0731 187.083C60.3139 187.093 61.3124 188.11 61.3056 189.356C61.2885 190.59 60.2815 191.578 59.0527 191.567C57.8238 191.555 56.8352 190.549 56.8408 189.314Z" fill="#093F68"/>
<path d="M61.9257 197.253C61.8239 197.252 61.7238 197.227 61.6342 197.178L45.6221 188.459L34.1867 197.103C34.0094 197.238 33.7741 197.267 33.5694 197.181C33.3647 197.094 33.2217 196.904 33.1942 196.682C33.1668 196.461 33.259 196.241 33.4363 196.107L45.219 187.22C45.4132 187.073 45.6751 187.053 45.8888 187.17L62.2481 196.057C62.4986 196.193 62.6249 196.482 62.5545 196.759C62.4841 197.036 62.235 197.229 61.9505 197.228L61.9257 197.253Z" fill="#093F68"/>
<rect x="12.5686" y="224.17" width="121.747" height="5.79821" rx="2.89911" fill="#093F68"/>
<path fill-rule="evenodd" clip-rule="evenodd" d="M14.7947 230.591H132.126C133.678 230.591 134.938 229.329 134.941 227.77V226.375C134.938 224.815 133.679 223.551 132.126 223.547H14.7947C13.2412 223.551 11.9827 224.815 11.9792 226.375V227.77C11.9827 229.329 13.2422 230.591 14.7947 230.591ZM13.2195 226.375C13.2195 225.501 13.9248 224.793 14.7947 224.793H132.126C132.544 224.793 132.944 224.959 133.24 225.256C133.535 225.553 133.701 225.955 133.701 226.375V227.77C133.698 228.641 132.993 229.345 132.126 229.345H14.7947C13.9272 229.345 13.2229 228.641 13.2195 227.77V226.375Z" fill="#093F68"/>
<path d="M107.32 230.74C106.978 230.74 106.7 230.462 106.7 230.118V203.854C106.7 203.51 106.978 203.232 107.32 203.232C107.663 203.232 107.94 203.51 107.94 203.854V230.118C107.94 230.462 107.663 230.74 107.32 230.74Z" fill="#093F68"/>
<path d="M52.9399 197.147L50.3663 201.127L49.5725 204.539L49.9012 204.789L52.7228 202.621L55.4887 198.847L52.9399 197.147Z" fill="#093F68"/>
<path fill-rule="evenodd" clip-rule="evenodd" d="M49.529 205.287C49.6364 205.368 49.7669 205.411 49.9011 205.411C50.0416 205.416 50.1794 205.372 50.2918 205.287L53.1197 203.12L53.2437 202.995L55.9847 199.233C56.0863 199.096 56.1272 198.923 56.0979 198.755C56.0686 198.586 55.9716 198.437 55.8297 198.343L53.2809 196.642C53.1443 196.551 52.977 196.517 52.8158 196.549C52.6521 196.583 52.509 196.682 52.4189 196.823L49.8453 200.803C49.8064 200.864 49.7771 200.932 49.7585 201.002L48.9709 204.415C48.9216 204.65 49.0108 204.892 49.2004 205.038L49.529 205.287ZM50.4282 203.599L50.943 201.376L53.1321 198.013L54.6142 199.009L52.2887 202.185L50.4282 203.599Z" fill="#093F68"/>
<path d="M64.3317 197.035C64.3317 197.035 64.5674 191.486 62.4713 190.9C60.3752 190.315 56.0714 189.144 54.9056 190.9C53.7397 192.657 50.8312 196.057 51.6436 197.981C52.456 199.906 60.3752 204.097 60.3752 204.097L69.6278 215.308L79.8477 203.886L64.3317 197.035Z" fill="#080C20"/>
<path fill-rule="evenodd" clip-rule="evenodd" d="M69.169 215.675C69.2828 215.812 69.4499 215.894 69.6279 215.899C69.8103 215.903 69.985 215.825 70.1054 215.688L80.3253 204.272C80.4576 204.123 80.5107 203.919 80.468 203.724C80.4264 203.526 80.2923 203.362 80.1083 203.281L64.9768 196.636C65.0016 195.061 64.8652 190.925 62.6512 190.302C60.4373 189.68 55.8359 188.397 54.4033 190.552C54.2049 190.85 53.9568 191.199 53.684 191.579C53.6368 191.645 53.5891 191.711 53.5408 191.778C52.117 193.753 50.2698 196.315 51.0856 198.224C51.929 200.199 58.4157 203.749 59.9908 204.589L69.169 215.675ZM55.4204 191.224C55.7429 190.77 56.4746 190.601 57.3552 190.601C59.0263 190.69 60.6812 190.976 62.2854 191.455C63.4016 191.766 63.7799 194.868 63.6931 196.966C63.6713 197.233 63.821 197.483 64.0652 197.589L78.7936 204.06L69.6279 214.305L60.8342 203.68C60.781 203.618 60.7182 203.566 60.6482 203.524C57.6653 201.942 52.7103 198.984 52.1956 197.72C51.6809 196.456 53.5537 193.846 54.6762 192.289C54.7181 192.23 54.7595 192.172 54.8005 192.115C55.0322 191.789 55.2464 191.489 55.4204 191.224Z" fill="#093F68"/>
<path d="M59.5567 187.319L53.6592 196.207C53.6592 196.207 54.6018 197.782 56.0963 197.695L61.9257 188.733C61.9257 188.733 60.5614 186.709 59.5567 187.319Z" fill="#093F68"/>
<path fill-rule="evenodd" clip-rule="evenodd" d="M53.1262 196.494C53.1813 196.584 54.2283 198.293 55.9722 198.293L56.1086 198.287C56.3028 198.274 56.4796 198.17 56.5862 198.006L62.4465 189.1C62.5883 188.89 62.5883 188.614 62.4465 188.403C62.2729 188.148 60.6791 185.893 59.2156 186.79C59.1358 186.834 59.0694 186.898 59.0233 186.977L53.1258 195.827C52.9975 196.03 52.9975 196.29 53.1258 196.493L53.1262 196.494ZM55.7676 197.029C55.2285 196.907 54.7496 196.599 54.4157 196.157L59.9535 187.83C60.2512 187.83 60.7783 188.266 61.1938 188.783L55.7676 197.029Z" fill="#093F68"/>
<path d="M50.1987 203.854L48.946 205.723L50.1987 203.854Z" fill="#093F68"/>
<path d="M48.9461 206.346C48.8224 206.346 48.7014 206.309 48.5988 206.24C48.318 206.048 48.2433 205.664 48.4313 205.38L49.6716 203.512C49.8634 203.226 50.2494 203.151 50.5336 203.344C50.8179 203.536 50.8929 203.924 50.7011 204.209L49.4608 206.078C49.3439 206.247 49.1512 206.347 48.9461 206.346Z" fill="#093F68"/>
<path d="M87.8167 195.222C87.8167 195.222 88.7965 190.664 90.998 189.325C93.1995 187.986 106.588 186.061 109.267 188.366C110.917 189.897 111.952 191.981 112.176 194.226L87.8167 195.222Z" fill="#080C20"/>
<path fill-rule="evenodd" clip-rule="evenodd" d="M87.3391 195.627C87.4584 195.767 87.6332 195.847 87.8167 195.845L112.176 194.849C112.345 194.842 112.504 194.765 112.616 194.637C112.726 194.512 112.782 194.349 112.771 194.182C112.542 191.774 111.438 189.535 109.671 187.892C106.743 185.382 93.0755 187.319 90.6755 188.789C88.2948 190.247 87.2688 194.824 87.2101 195.086L87.2089 195.092C87.167 195.281 87.2151 195.479 87.3391 195.627ZM91.3205 189.854C92.8026 188.951 99.0847 187.923 103.785 187.923C106.136 187.923 108.095 188.179 108.864 188.839C110.233 190.103 111.147 191.787 111.463 193.628L88.6228 194.569C89.0507 193.08 89.981 190.67 91.3205 189.854Z" fill="#093F68"/>
<path d="M122.948 230.118L116.498 194.961C116.17 194.569 115.983 194.338 115.983 194.338C114.795 193.191 113.21 192.551 111.562 192.551H86.8058C86.1298 192.551 83.6368 192.227 79.6431 195.59C73.8758 200.454 65.6899 206.564 61.3799 210.711L65.0635 229.395C65.7891 229.57 77.6028 224.145 77.6028 224.145L78.7687 230.093L122.948 230.118Z" fill="#080C20"/>
<path fill-rule="evenodd" clip-rule="evenodd" d="M78.7688 230.74H122.929C123.115 230.744 123.292 230.663 123.412 230.52C123.533 230.378 123.583 230.189 123.549 230.006L117.106 194.83C117.086 194.724 117.039 194.626 116.97 194.544C116.855 194.416 116.758 194.306 116.677 194.216C116.526 194.047 116.436 193.945 116.412 193.921C115.109 192.66 113.371 191.957 111.562 191.959H86.6447L86.6373 191.959C85.6705 191.934 83.1247 191.868 79.2339 195.142C77.0758 196.966 74.5395 199.003 72.0589 200.971C71.8354 201.151 71.6114 201.33 71.3873 201.511C67.4702 204.657 63.5031 207.845 60.9397 210.313C60.788 210.459 60.7203 210.672 60.7599 210.88L64.4435 229.563C64.4904 229.803 64.6722 229.993 64.9086 230.049C64.9165 230.049 64.9247 230.049 64.9337 230.05C65.2093 230.056 66.1778 230.079 77.1317 225.067L78.1487 230.242C78.2085 230.537 78.4695 230.747 78.7688 230.74ZM122.204 229.495H79.2773L78.1921 224.07C78.1557 223.884 78.0367 223.725 77.8688 223.637C77.701 223.55 77.5026 223.544 77.3301 223.622C72.586 225.808 67.2404 228.143 65.5474 228.698L62.056 210.948C64.735 208.413 68.8527 205.119 72.8403 201.936L72.9873 201.819C75.4157 199.881 77.9126 197.889 80.0401 196.094C83.4875 193.19 85.677 193.196 86.5572 193.198C86.5811 193.198 86.6041 193.198 86.626 193.198H111.574C113.046 193.194 114.462 193.758 115.531 194.774L115.928 195.241L122.204 229.495Z" fill="#093F68"/>
<path d="M100.896 196.013H123.072C125.072 195.967 126.991 196.804 128.322 198.304C129.653 199.804 130.262 201.815 129.987 203.805L127.14 230.118H89.4478L92.3128 203.805C92.8607 199.433 96.5095 196.121 100.896 196.013Z" fill="#093F68"/>
<path fill-rule="evenodd" clip-rule="evenodd" d="M89.4475 230.74H127.14C127.455 230.739 127.719 230.501 127.754 230.186L130.6 203.867C130.893 201.702 130.227 199.518 128.779 197.888C127.332 196.258 125.246 195.345 123.072 195.391H100.908C96.2036 195.501 92.2863 199.048 91.6925 203.736L88.8336 230.055C88.8157 230.23 88.872 230.404 88.9886 230.535C89.1059 230.665 89.2725 230.74 89.4475 230.74ZM126.582 229.495H90.1421L92.9327 203.867C93.4433 199.812 96.8267 196.739 100.895 196.636H123.072C124.895 196.591 126.645 197.353 127.858 198.721C129.07 200.089 129.622 201.923 129.366 203.736L126.582 229.495Z" fill="#093F68"/>
<path d="M104.288 196.013H126.47C128.469 195.969 130.387 196.807 131.716 198.307C133.046 199.806 133.653 201.816 133.379 203.805L130.532 230.118H92.8459L95.6924 203.805C96.241 199.428 99.8967 196.115 104.288 196.013Z" fill="#080C20"/>
<path fill-rule="evenodd" clip-rule="evenodd" d="M92.846 230.74H130.532C130.848 230.75 131.121 230.519 131.165 230.205L134.011 203.886C134.28 201.709 133.602 199.521 132.151 197.882C130.703 196.268 128.633 195.36 126.47 195.391H104.288C99.5847 195.501 95.6694 199.049 95.0785 203.736L92.232 230.055C92.2141 230.23 92.2704 230.404 92.3871 230.535C92.5043 230.665 92.671 230.74 92.846 230.74ZM129.98 229.495H93.5343L96.3064 203.867C96.8205 199.806 100.213 196.733 104.288 196.636H126.47C128.277 196.604 130.01 197.355 131.227 198.698C132.436 200.077 132.997 201.913 132.765 203.736L129.98 229.495Z" fill="#093F68"/>
<path d="M61.3799 210.718L35.4951 213.782C35.4951 213.782 29.3557 207.766 28.0534 207.996C26.7511 208.226 28.1402 212.729 28.1402 212.729C28.1402 212.729 23.5449 209.615 22.7325 212.293C21.9201 214.971 22.1124 219.979 23.2535 221.498C24.3945 223.018 29.1386 223.616 36.8966 223.167L64.3379 225.36L61.3799 210.718Z" fill="#080C20"/>
<path fill-rule="evenodd" clip-rule="evenodd" d="M64.2823 225.982H64.3319C64.5079 225.98 64.6747 225.903 64.7909 225.771C64.9193 225.624 64.9721 225.426 64.9335 225.235L61.9816 210.593C61.9192 210.276 61.6256 210.06 61.3056 210.095L35.6937 213.134C33.2814 210.792 29.2877 207.143 27.9357 207.392C27.6101 207.452 27.327 207.652 27.1606 207.94C26.7017 208.7 26.8939 210.238 27.1606 211.446C26.0691 210.898 24.5312 210.319 23.4025 210.724C22.7877 210.959 22.3251 211.479 22.1622 212.119C21.3064 214.921 21.4552 220.153 22.7824 221.884C24.1095 223.616 28.8225 224.257 36.8844 223.796L64.2823 225.982ZM36.9402 222.544H36.8906H36.872C26.5032 223.142 24.2645 221.741 23.7808 221.118C22.8072 219.842 22.5715 215.077 23.3591 212.474C23.4114 212.205 23.5995 211.983 23.8552 211.888C24.804 211.558 26.7947 212.542 27.8303 213.246C28.048 213.396 28.3359 213.39 28.5482 213.233C28.7604 213.076 28.8506 212.802 28.7729 212.549C28.2396 210.873 28.0226 209.061 28.2396 208.625C29.114 208.818 32.4132 211.633 35.0612 214.23C35.1955 214.363 35.3826 214.427 35.5697 214.405L60.8901 211.403L63.563 224.668L36.9402 222.544Z" fill="#093F68"/>
<path d="M77.6029 224.793C77.3182 224.788 77.0732 224.59 77.0086 224.311C76.9441 224.033 77.0766 223.746 77.33 223.616L86.1857 219.25C86.3849 219.143 86.6266 219.153 86.8163 219.276C87.006 219.4 87.1136 219.617 87.0973 219.844C87.0809 220.07 86.9431 220.27 86.7376 220.365L77.8819 224.762C77.7925 224.793 77.6971 224.804 77.6029 224.793Z" fill="#093F68"/>
<path d="M35.024 207.597C34.7461 207.612 34.4925 207.439 34.4038 207.174L28.1218 188.565C28.0328 188.35 28.0705 188.103 28.2193 187.925C28.3682 187.747 28.6035 187.667 28.8295 187.718C29.0555 187.768 29.2346 187.941 29.2939 188.166L35.4333 206.333L48.1028 205.86C48.4453 205.86 48.7229 206.139 48.7229 206.483C48.7229 206.827 48.4453 207.105 48.1028 207.105L34.9744 207.597H35.024Z" fill="#093F68"/>
<path d="M39.7741 205.411C39.5162 205.413 39.2841 205.254 39.1912 205.013L36.3137 197.371C36.1922 197.05 36.3532 196.69 36.6734 196.568C36.9937 196.446 37.3518 196.607 37.4734 196.929L40.3509 204.571C40.4093 204.725 40.4042 204.896 40.3368 205.047C40.2693 205.198 40.145 205.315 39.9912 205.374C39.9214 205.399 39.8481 205.411 39.7741 205.411Z" fill="#093F68"/>
<path fill-rule="evenodd" clip-rule="evenodd" d="M35.4951 223.553H39.7741C40.1166 223.553 40.3943 223.275 40.3943 222.931V213.084C40.3943 212.74 40.1166 212.461 39.7741 212.461H35.4951C35.1526 212.461 34.875 212.74 34.875 213.084V222.931C34.875 223.275 35.1526 223.553 35.4951 223.553ZM39.154 222.308H36.1153V213.707H39.154V222.308Z" fill="#093F68"/>
<path fill-rule="evenodd" clip-rule="evenodd" d="M34.658 217.874C34.658 219.525 35.9907 220.863 37.6346 220.863C39.2786 220.863 40.6113 219.525 40.6113 217.874C40.6113 216.222 39.2786 214.884 37.6346 214.884C35.9907 214.884 34.658 216.222 34.658 217.874ZM35.8982 217.874C35.8982 216.91 36.6757 216.13 37.6346 216.13V216.136C38.5912 216.136 39.3676 216.913 39.371 217.874C39.371 218.837 38.5936 219.617 37.6346 219.617C36.6757 219.617 35.8982 218.837 35.8982 217.874Z" fill="#093F68"/>
<path d="M70.0868 209.285C69.7177 209.287 69.3496 209.247 68.9892 209.167C67.6208 208.841 66.4236 208.013 65.6342 206.844C65.4527 206.551 65.5415 206.167 65.8326 205.984C66.1238 205.802 66.5069 205.891 66.6884 206.184C67.3038 207.07 68.2217 207.7 69.2682 207.952C70.5085 208.226 71.9224 207.853 73.4232 206.856C74.5208 206.216 75.3012 205.143 75.5751 203.898C75.9472 201.843 74.5643 199.906 74.5457 199.887C74.4138 199.707 74.3878 199.47 74.4773 199.265C74.5668 199.06 74.7582 198.919 74.9796 198.894C75.2009 198.87 75.4185 198.966 75.5503 199.146C75.6185 199.246 77.2557 201.519 76.7906 204.128C76.4657 205.719 75.4856 207.097 74.093 207.921C72.9211 208.763 71.527 209.238 70.0868 209.285Z" fill="#093F68"/>
<path d="M69.6278 227.695C69.3595 227.695 69.1218 227.521 69.0386 227.265L63.0419 208.862C62.9359 208.535 63.1135 208.184 63.4387 208.077C63.7641 207.971 64.1138 208.149 64.2201 208.476L70.2169 226.879C70.3234 227.204 70.1489 227.554 69.8262 227.664C69.7618 227.683 69.695 227.694 69.6278 227.695Z" fill="#093F68"/>
<path fill-rule="evenodd" clip-rule="evenodd" d="M22.4351 168.667H55.4887C55.8312 168.667 56.1089 168.388 56.1089 168.044V140.871C56.1089 140.527 55.8312 140.248 55.4887 140.248H22.4351C22.0926 140.248 21.8149 140.527 21.8149 140.871V168.044C21.8149 168.388 22.0926 168.667 22.4351 168.667ZM54.8686 167.421H23.0552V141.494H54.8686V167.421Z" fill="#093F68"/>
<path fill-rule="evenodd" clip-rule="evenodd" d="M29.6782 160.508H43.3214C43.6639 160.508 43.9415 160.229 43.9415 159.885V146.184C43.9415 145.84 43.6639 145.561 43.3214 145.561H29.6782C29.3358 145.561 29.0581 145.84 29.0581 146.184V159.885C29.0581 160.229 29.3358 160.508 29.6782 160.508ZM42.7013 159.262H30.2984V146.806H42.7013V159.262Z" fill="#093F68"/>
<path fill-rule="evenodd" clip-rule="evenodd" d="M34.968 156.377C34.9737 160.891 38.6213 164.547 43.1167 164.544C45.2784 164.542 47.3507 163.677 48.8769 162.14C50.4031 160.602 51.2579 158.519 51.253 156.348C51.2427 151.833 47.5914 148.181 43.096 148.189C38.6007 148.197 34.9623 151.862 34.968 156.377ZM36.7331 153.721C37.8019 151.128 40.3222 149.438 43.1167 149.441C46.9152 149.448 49.9956 152.533 50.0127 156.348C50.0227 159.154 48.3468 161.69 45.7676 162.77C43.1885 163.85 40.2152 163.262 38.2365 161.281C36.2579 159.299 35.6643 156.314 36.7331 153.721Z" fill="#093F68"/>
<path fill-rule="evenodd" clip-rule="evenodd" d="M125.949 186.995H147.251C147.416 186.995 147.573 186.93 147.69 186.813C147.806 186.696 147.871 186.538 147.871 186.373V158.422C147.871 158.078 147.594 157.799 147.251 157.799H125.949C125.607 157.799 125.329 158.078 125.329 158.422V186.373C125.329 186.717 125.607 186.995 125.949 186.995ZM146.631 185.75H126.569V159.044H146.631V185.75Z" fill="#093F68"/>
<path fill-rule="evenodd" clip-rule="evenodd" d="M130.03 183.458H143.022C143.229 183.457 143.422 183.352 143.537 183.178C143.651 183.007 143.675 182.79 143.599 182.598L137.099 166.649C137.004 166.416 136.779 166.264 136.529 166.263C136.276 166.261 136.048 166.414 135.952 166.649L129.459 182.598C129.381 182.789 129.402 183.006 129.515 183.178C129.629 183.352 129.822 183.457 130.03 183.458ZM142.116 182.212H130.954L136.535 168.511L142.116 182.212Z" fill="#093F68"/>
<path fill-rule="evenodd" clip-rule="evenodd" d="M130.03 171.587H141.304C141.647 171.587 141.924 171.309 141.924 170.965V161.673C141.924 161.329 141.647 161.05 141.304 161.05H130.03C129.687 161.05 129.41 161.329 129.41 161.673V170.965C129.41 171.309 129.687 171.587 130.03 171.587ZM140.684 170.342H130.675L130.65 162.295H140.684V170.342Z" fill="#093F68"/>
<path fill-rule="evenodd" clip-rule="evenodd" d="M119.047 150.668H132.492C132.834 150.668 133.112 150.389 133.112 150.045V139.875C133.112 139.531 132.834 139.252 132.492 139.252H119.047C118.705 139.252 118.427 139.531 118.427 139.875V150.045C118.427 150.389 118.705 150.668 119.047 150.668ZM131.872 149.422H119.667V140.498H131.872V149.422Z" fill="#093F68"/>
<path d="M122.948 146.806C122.703 146.805 122.482 146.658 122.384 146.433C122.317 146.282 122.313 146.11 122.372 145.956C122.431 145.802 122.549 145.678 122.7 145.611L125.521 144.365C125.715 144.282 125.936 144.304 126.111 144.421L127.438 145.312L129.521 142.322C129.642 142.127 129.861 142.014 130.09 142.029C130.318 142.045 130.52 142.185 130.614 142.395C130.708 142.605 130.679 142.85 130.538 143.032L128.107 146.539C127.915 146.815 127.538 146.887 127.258 146.701L125.701 145.661L123.221 146.757C123.135 146.796 123.042 146.813 122.948 146.806Z" fill="#093F68"/>
<path d="M67.4667 89.5075C70.029 92.7192 63.0181 99.3194 59.7115 95.6862C55.8197 91.4152 64.9953 86.4096 67.4667 89.5075Z" fill="#080C20"/>
<path fill-rule="evenodd" clip-rule="evenodd" d="M59.2853 96.0677C59.9908 96.8764 61.0146 97.3343 62.0863 97.3206C63.5879 97.2394 65.0152 96.6398 66.1258 95.6235C68.1768 93.8696 69.4494 91.0849 67.9098 89.1544C67.12 88.1635 65.7735 87.7763 64.0691 88.0724C61.8874 88.4483 59.1546 90.0655 58.3876 92.3092C57.9305 93.6304 58.2809 95.0973 59.2853 96.0677ZM64.2566 89.1772C64.5418 89.1269 64.8306 89.1002 65.1202 89.0974C65.8328 89.0451 66.5307 89.3194 67.0178 89.8435C68.0916 91.1988 66.9951 93.3628 65.3815 94.7409C63.768 96.119 61.5238 96.8194 60.1262 95.2819C59.4142 94.6131 59.1567 93.5895 59.4671 92.6623C60.0069 91.0792 62.109 89.553 64.2566 89.1772Z" fill="#093F68"/>
<path fill-rule="evenodd" clip-rule="evenodd" d="M29.3839 7.78319C29.4442 7.7914 29.5054 7.7914 29.5657 7.78319C29.697 7.78668 29.8255 7.74441 29.9293 7.6636L31.1167 6.64426C31.3235 6.47107 31.3804 6.17613 31.2531 5.93812C30.952 5.38574 28.2703 0.545266 25.7421 1.08056C24.3955 1.3653 23.9978 2.02588 23.9013 2.5384C23.7862 3.26312 24.0898 3.99077 24.6853 4.41764C24.9395 4.55732 25.2134 4.65718 25.4978 4.71376C26.5715 5.00989 28.5714 5.56227 29.0089 7.37887C29.056 7.56942 29.1977 7.72221 29.3839 7.78319ZM25.9864 2.18533H26.1511C27.2931 2.18533 28.9919 4.30375 30.0316 6.07479L29.827 6.24563C28.9351 4.45187 26.8875 3.87823 25.8248 3.5805L25.8046 3.57483C25.7135 3.55067 25.6123 3.51765 25.5261 3.4895C25.4293 3.45792 25.3513 3.43246 25.3273 3.43246C25.125 3.26706 25.0115 3.01634 25.0205 2.7548C25.066 2.50993 25.4182 2.30492 25.9864 2.18533Z" fill="#093F68"/>
<path d="M29.9406 67.6115H42.4682C46.3091 67.6115 49.9926 69.1408 52.7085 71.863C55.4245 74.5852 56.9502 78.2774 56.9502 82.1272V108.078H15.4585V82.1215C15.4616 74.1069 21.9446 67.6114 29.9406 67.6115V67.6115Z" fill="#080C20"/>
<path fill-rule="evenodd" clip-rule="evenodd" d="M15.4585 108.647H56.973C57.2779 108.635 57.5187 108.384 57.5184 108.078V82.1214C57.509 73.7949 50.7754 67.0482 42.4682 67.042H29.969C25.9744 67.0374 22.1416 68.6236 19.3139 71.4516C16.4861 74.2795 14.8949 78.1176 14.8904 82.1214V108.078C14.8904 108.392 15.1447 108.647 15.4585 108.647ZM56.4049 107.508H16.0267L16.0551 82.1214C16.0645 74.424 22.2894 68.1872 29.969 68.1809H42.4682C50.1567 68.1746 56.3954 74.4151 56.4049 82.1214V107.508Z" fill="#093F68"/>
<path d="M49.4109 96.8365C49.0971 96.8365 48.8428 96.5815 48.8428 96.267V75.9997C48.8428 75.6852 49.0971 75.4302 49.4109 75.4302C49.7247 75.4302 49.9791 75.6852 49.9791 75.9997V96.25C49.9837 96.4039 49.9259 96.5532 49.8188 96.6637C49.7118 96.7742 49.5646 96.8366 49.4109 96.8365Z" fill="#093F68"/>
<path d="M24.2193 108.647C23.9055 108.647 23.6511 108.392 23.6511 108.078V75.9997C23.6511 75.6852 23.9055 75.4302 24.2193 75.4302C24.533 75.4302 24.7874 75.6852 24.7874 75.9997V108.061C24.792 108.215 24.7342 108.364 24.6272 108.474C24.5201 108.585 24.373 108.647 24.2193 108.647Z" fill="#093F68"/>
<path d="M44.3032 83.0155H28.1281L24.2192 86.8025V108.078H48.2121V86.8025L44.3032 83.0155Z" fill="#093F68"/>
<path fill-rule="evenodd" clip-rule="evenodd" d="M24.2193 108.647H48.2121C48.5194 108.647 48.7711 108.403 48.7803 108.095V86.8196C48.7812 86.6654 48.7197 86.5175 48.6098 86.4095L44.6953 82.6226C44.59 82.5208 44.4496 82.4637 44.3033 82.4631H28.1281C27.9819 82.4637 27.8414 82.5208 27.7361 82.6226L23.8216 86.4095C23.7117 86.5175 23.6502 86.6654 23.6511 86.8196V108.078C23.6511 108.392 23.9055 108.647 24.2193 108.647ZM47.644 107.508H24.7874V87.0473L28.3611 83.585H44.0703L47.644 87.0473V107.508Z" fill="#093F68"/>
<path d="M28.1282 84.5873C27.8144 84.5873 27.5601 84.3323 27.5601 84.0178V67.6115C27.5601 67.297 27.8144 67.042 28.1282 67.042C28.442 67.042 28.6964 67.297 28.6964 67.6115V84.0178C28.6964 84.3323 28.442 84.5873 28.1282 84.5873Z" fill="#093F68"/>
<path d="M44.3943 84.5873C44.0805 84.5873 43.8262 84.3323 43.8262 84.0178V67.6115C43.8262 67.297 44.0805 67.042 44.3943 67.042C44.7081 67.042 44.9625 67.297 44.9625 67.6115V84.0178C44.9625 84.3323 44.7081 84.5873 44.3943 84.5873Z" fill="#093F68"/>
<path d="M12.3564 62.9703C12.97 64.3313 14.2824 64.7812 16.5663 64.6787C21.4751 64.4509 26.4407 64.6787 31.3382 64.6787H58.4444C60.058 64.6787 60.8875 63.8871 60.9784 62.2527C61.3817 55.2084 60.9784 48.2666 60.5182 41.2451C60.1318 34.924 59.2739 28.4435 56.098 22.8456C49.9677 12.0257 33.5482 7.09416 26.4407 16.348C26.4407 16.348 21.3672 14.6396 16.555 20.5962C12.612 25.4652 12.2371 31.9343 12.1689 37.9194L11.9132 60.1685C11.8653 61.1231 12.0162 62.0773 12.3564 62.9703Z" fill="#080C20"/>
<path fill-rule="evenodd" clip-rule="evenodd" d="M11.8168 63.2038C12.5894 64.9179 14.2371 65.2652 15.8847 65.2652C16.1176 65.2652 16.3335 65.2538 16.5665 65.2368C19.8731 65.083 23.2592 65.1286 26.5374 65.1741C28.1396 65.2197 29.7361 65.2197 31.3326 65.2197H58.4389C60.3592 65.214 61.4273 64.1946 61.541 62.2584C61.9443 55.1914 61.5069 48.0787 61.0808 41.1882C60.7171 35.2372 59.8933 28.3695 56.5867 22.5438C52.9335 16.1088 45.5647 11.4506 38.247 10.9381C33.2529 10.5964 28.9975 12.2649 26.2193 15.6817C24.8785 15.4141 20.3844 14.9471 16.1063 20.2375C12.0724 25.2032 11.6634 31.6838 11.5952 37.8909L11.3395 60.1457C11.2782 61.1876 11.4409 62.2305 11.8168 63.2038ZM16.9869 20.9379C19.9185 17.3161 22.8899 16.6669 24.6569 16.6669C25.1981 16.6565 25.7378 16.7256 26.2591 16.8719C26.489 16.9488 26.7422 16.8711 26.8897 16.6783C29.418 13.3868 33.4234 11.7581 38.1674 12.0827C45.1215 12.5667 52.1268 16.9972 55.5981 23.1133C58.7798 28.7453 59.5695 35.1518 59.9501 41.2736C60.4047 48.4375 60.8081 55.197 60.4047 62.2015C60.3308 63.5227 59.757 64.0921 58.4389 64.0921H31.3326C30.5379 64.0921 29.7432 64.0808 28.9478 64.0694C28.151 64.058 27.3534 64.0466 26.5545 64.0466C23.2592 64.001 19.856 63.9555 16.5153 64.1092C13.8962 64.2288 13.2087 63.5227 12.8565 62.7368C12.5504 61.9132 12.4208 61.0342 12.4758 60.1571L12.7315 37.908C12.7997 31.9002 13.1803 25.636 16.9869 20.9379Z" fill="#093F68"/>
<path d="M32.7755 67.6114H39.4512V71.444C39.4512 73.0165 38.1794 74.2913 36.6105 74.2913H35.6049C34.036 74.2913 32.7642 73.0165 32.7642 71.444V67.5944L32.7755 67.6114Z" fill="#080C20"/>
<path fill-rule="evenodd" clip-rule="evenodd" d="M35.6105 74.8608H36.6162C38.4944 74.8545 40.0137 73.3266 40.0137 71.444V67.5944C40.0137 67.2799 39.7593 67.0249 39.4455 67.0249H32.7698C32.456 67.0249 32.2017 67.2799 32.2017 67.5944V71.444C32.2017 73.331 33.7279 74.8608 35.6105 74.8608ZM33.3436 71.444V68.1695L38.8944 68.1638V71.444C38.8944 72.702 37.877 73.7218 36.6218 73.7218H35.6162C34.3611 73.7218 33.3436 72.702 33.3436 71.444Z" fill="#093F68"/>
<ellipse cx="17.0322" cy="50.2256" rx="6.48823" ry="5.60356" fill="#080C20"/>
<path fill-rule="evenodd" clip-rule="evenodd" d="M9.97583 50.2256C9.97583 53.631 13.1404 56.3986 17.0322 56.3986C20.9183 56.3986 24.0886 53.631 24.0886 50.2256C24.0886 46.8202 20.924 44.0526 17.0322 44.0526C13.1404 44.0526 9.97583 46.8202 9.97583 50.2256ZM11.1121 50.2256C11.1121 47.4694 13.7654 45.1915 17.0322 45.1915C20.3104 45.1915 22.9523 47.4694 22.9523 50.2256C22.9523 52.9818 20.2991 55.2597 17.0322 55.2597C13.7654 55.2597 11.1121 52.9818 11.1121 50.2256Z" fill="#093F68"/>
<ellipse cx="54.8481" cy="50.2256" rx="6.48823" ry="5.60356" fill="#080C20"/>
<path fill-rule="evenodd" clip-rule="evenodd" d="M47.7974 50.2256C47.7974 53.631 50.9619 56.3986 54.8481 56.3986C58.7399 56.3986 61.9044 53.631 61.9044 50.2256C61.9044 46.8202 58.7058 44.0526 54.8481 44.0526C50.9903 44.0526 47.7974 46.8202 47.7974 50.2256ZM48.9337 50.2256C48.9337 47.4694 51.5869 45.1915 54.8481 45.1915C58.1149 45.1915 60.7682 47.4694 60.7682 50.2256C60.7682 52.9818 58.1092 55.2597 54.8481 55.2597C51.5869 55.2597 48.9337 52.9818 48.9337 50.2256Z" fill="#093F68"/>
<path d="M48.0133 33.6029L41.6841 25.4481C41.6841 25.4481 40.2581 30.4708 39.3831 33.5801L29.4008 33.5516L27.0487 26.2682L24.2875 33.5346H16.5493V48.9102C16.5478 54.1112 18.6081 59.0997 22.2767 62.7779C25.9453 66.4561 30.9216 68.5226 36.1106 68.5226C46.9171 68.5226 55.6776 59.7418 55.6776 48.9102V33.6257L48.0133 33.6029Z" fill="#080C20"/>
<path fill-rule="evenodd" clip-rule="evenodd" d="M15.9812 48.876C15.9906 60.016 24.9964 69.0453 36.1106 69.0579C47.2235 69.0453 56.2301 60.0204 56.2458 48.8817V33.6313C56.2458 33.3168 55.9914 33.0619 55.6776 33.0619H48.2917L42.133 25.1235C42.0022 24.9512 41.7852 24.8681 41.5731 24.9092C41.3609 24.9502 41.1904 25.1083 41.1331 25.3171C41.1331 25.3171 39.832 29.8729 38.9741 32.9765L29.844 32.948L27.6168 26.0574C27.5427 25.8291 27.3336 25.6719 27.0941 25.6645C26.8455 25.648 26.6152 25.7957 26.526 26.029L23.8955 32.9309H16.5493C16.2356 32.9309 15.9812 33.1859 15.9812 33.5004V48.876ZM17.1175 48.8874V34.0812L24.2875 34.104C24.5217 34.1033 24.7316 33.9586 24.8159 33.7395L27.0089 27.9822L28.8668 33.7281C28.9423 33.9604 29.1572 34.1185 29.4008 34.1211L39.3377 34.1496C39.6002 34.1593 39.8351 33.9874 39.9059 33.7338C40.2399 32.5499 40.6534 31.0895 41.0371 29.7342C41.3714 28.5536 41.6832 27.4527 41.9 26.6838L47.5645 33.9787C47.6716 34.1147 47.8348 34.1943 48.0076 34.1951H55.1095V48.8874C55.2282 55.7682 51.6338 62.178 45.7076 65.6532C39.7814 69.1285 32.4456 69.1285 26.5194 65.6532C20.5932 62.178 16.9988 55.7682 17.1175 48.8874Z" fill="#093F68"/>
<path fill-rule="evenodd" clip-rule="evenodd" d="M20.7628 50.1337C21.8427 52.7424 24.3843 54.442 27.2021 54.4397C31.0455 54.4334 34.1587 51.3104 34.1619 47.458C34.1619 44.6337 32.4642 42.0875 29.8607 41.0072C27.2571 39.9269 24.2607 40.5253 22.269 42.5232C20.2774 44.5212 19.6828 47.525 20.7628 50.1337ZM21.812 45.2252C22.7157 43.0414 24.8434 41.6187 27.2021 41.621C30.4157 41.6272 33.0193 44.2369 33.0256 47.458C33.0279 49.8222 31.6085 51.9548 29.4298 52.8606C27.251 53.7664 24.7424 53.2669 23.0745 51.5951C21.4067 49.9234 20.9083 47.4089 21.812 45.2252Z" fill="#093F68"/>
<path fill-rule="evenodd" clip-rule="evenodd" d="M38.5855 50.1337C39.6654 52.7424 42.207 54.442 45.0248 54.4397C48.8682 54.4334 51.9815 51.3104 51.9846 47.458C51.9846 44.6337 50.2869 42.0875 47.6834 41.0072C45.0799 39.9269 42.0835 40.5253 40.0918 42.5232C38.1001 44.5212 37.5056 47.525 38.5855 50.1337ZM39.6348 45.2252C40.5385 43.0414 42.6661 41.6187 45.0248 41.621C48.2398 41.6241 50.8452 44.2356 50.8483 47.458C50.8506 49.8222 49.4312 51.9548 47.2525 52.8606C45.0738 53.7664 42.5652 53.2669 40.8973 51.5951C39.2294 49.9234 38.7311 47.4089 39.6348 45.2252Z" fill="#093F68"/>
<ellipse cx="27.8043" cy="47.8396" rx="1.81239" ry="1.8166" fill="#093F68"/>
<ellipse cx="43.9284" cy="47.458" rx="1.81239" ry="1.8166" fill="#093F68"/>
<path d="M35.7868 54.0468C35.1949 54.0425 34.6042 53.993 34.0198 53.8987C33.8169 53.8631 33.6483 53.7216 33.5775 53.5277C33.5068 53.3337 33.5447 53.1166 33.677 52.9582C33.8092 52.7998 34.0157 52.7242 34.2187 52.7598C35.1055 52.911 36.0106 52.9207 36.9003 52.7882C37.0083 52.2643 36.3322 50.3224 35.372 48.5001C35.2261 48.2202 35.3342 47.8748 35.6135 47.7285C35.8928 47.5823 36.2374 47.6906 36.3833 47.9705C37.014 49.1892 38.4343 52.1504 37.9173 53.3121C37.7987 53.5949 37.5548 53.8057 37.2583 53.8816C36.7763 53.9965 36.2822 54.052 35.7868 54.0468Z" fill="#093F68"/>
<path d="M22.1512 41.0287C21.5237 41.068 20.9831 40.59 20.9439 39.961C20.9047 39.3319 21.3816 38.7902 22.0092 38.7508L30.5825 37.6802C31.2101 37.6016 31.7824 38.0478 31.8608 38.6768C31.9393 39.3058 31.4941 39.8795 30.8666 39.9581L22.2933 41.0287H22.1512Z" fill="#093F68"/>
<path d="M48.9905 41.2622C48.9224 41.2678 48.854 41.2678 48.786 41.2622L40.2638 39.7075C39.6456 39.5943 39.2361 39.0003 39.3491 38.3807C39.462 37.7611 40.0547 37.3506 40.6728 37.4638L49.195 39.0242C49.8226 39.0792 50.2868 39.6338 50.2319 40.2628C50.177 40.8918 49.6237 41.3571 48.9962 41.3021L48.9905 41.2622Z" fill="#093F68"/>
<path d="M37.1958 61.1935C33.8349 61.1709 30.6228 59.8011 28.2759 57.3895C28.0868 57.1533 28.1152 56.81 28.3407 56.6083C28.5661 56.4065 28.9097 56.417 29.1225 56.6321C29.3384 56.8713 34.4971 62.5033 42.4796 58.8303C42.6643 58.7448 42.8805 58.7646 43.0466 58.8822C43.2128 58.9998 43.3038 59.1974 43.2853 59.4005C43.2667 59.6035 43.1415 59.7812 42.9568 59.8667C41.1555 60.7234 39.1896 61.1762 37.1958 61.1935Z" fill="#093F68"/>
<path d="M38.6274 47.1732C38.5116 47.173 38.3986 47.1372 38.3036 47.0707C36.9897 46.1051 35.2029 46.1051 33.8891 47.0707C33.7696 47.1644 33.6177 47.2062 33.4672 47.187C33.3167 47.1677 33.1802 47.089 33.088 46.9682C32.8959 46.7211 32.9391 46.3649 33.1846 46.171C34.9042 44.9136 37.2373 44.9136 38.9569 46.171C39.2138 46.3505 39.2774 46.7045 39.099 46.9625C38.9845 47.1044 38.8092 47.1828 38.6274 47.1732Z" fill="#093F68"/>
<path d="M20.7649 46.2166C20.7139 46.2221 20.6625 46.2221 20.6115 46.2166L16.8787 45.1915C16.6669 45.1531 16.4949 44.998 16.4345 44.7909C16.3741 44.5838 16.4356 44.3603 16.5935 44.2136C16.7513 44.0668 16.9784 44.0221 17.1799 44.0981L20.9126 45.1175C21.2264 45.1584 21.4477 45.4465 21.4069 45.761C21.3661 46.0755 21.0786 46.2973 20.7649 46.2564V46.2166Z" fill="#093F68"/>
<path d="M51.7006 46.2166C51.3868 46.2574 51.0993 46.0356 51.0586 45.7211C51.0178 45.4066 51.2391 45.1185 51.5528 45.0776L55.2856 44.0583C55.4881 43.9799 55.7175 44.024 55.8767 44.1721C56.0359 44.3201 56.097 44.5461 56.0341 44.7544C55.9712 44.9627 55.7954 45.1169 55.581 45.1517L51.8483 46.1767C51.8009 46.1961 51.7513 46.2094 51.7006 46.2166Z" fill="#093F68"/>
<path d="M18.6059 22.7203C21.6455 21.9231 28.2644 17.8172 33.1505 17.2819C38.0365 16.7466 49.5472 18.0792 52.9845 16.2227C56.4218 14.3663 57.4785 7.74336 52.4561 2.97122C47.4337 -1.80091 33.1391 3.23887 23.8954 8.6659C14.6516 14.0929 11.203 15.1578 11.3336 18.8707C11.4643 22.5837 15.5493 23.5119 18.6059 22.7203Z" fill="#080C20"/>
<path fill-rule="evenodd" clip-rule="evenodd" d="M12.5155 22.373C13.698 23.1783 15.1032 23.5907 16.5323 23.5518C17.2736 23.5581 18.0127 23.4681 18.731 23.2841C20.3503 22.7569 21.9268 22.1058 23.4466 21.3366C26.4635 19.9357 30.2189 18.1931 33.196 17.8685C35.5847 17.7121 37.9801 17.6855 40.3717 17.7888L40.6002 17.7928C45.7101 17.883 50.9506 17.9754 53.2346 16.741C54.8935 15.8469 56.0639 13.9506 56.365 11.6727C56.8025 8.42105 55.5071 5.10106 52.8255 2.56123C47.3145 -2.67786 32.3211 3.05667 23.5887 8.18188C22.0113 9.10372 20.6105 9.89982 19.3568 10.6123C19.2242 10.6876 19.0933 10.7621 18.9639 10.8356C13.0666 14.1613 10.6292 15.5394 10.7485 18.8936C10.7597 20.2671 11.414 21.5557 12.5155 22.373ZM39.8831 2.53846C41.9926 1.97832 44.1612 1.67244 46.3429 1.62731C48.5928 1.62731 50.6779 2.08858 52.0699 3.38696C54.4788 5.67622 55.6435 8.66023 55.2628 11.5076C54.9901 13.4438 54.0584 14.9984 52.7175 15.7216C50.6531 16.8271 45.2668 16.7248 40.482 16.634L40.4172 16.6328C37.9763 16.5257 35.5314 16.5542 33.0938 16.7182C29.9502 17.0582 26.1258 18.8307 23.0372 20.2622L22.9921 20.2831C21.5259 21.0237 20.0066 21.6538 18.4469 22.168C16.5096 22.6748 14.4472 22.3958 13.1973 21.4618C12.3715 20.8506 11.8844 19.8826 11.8848 18.8537C11.7883 16.2057 13.8961 15.0041 19.5207 11.8151C19.7538 11.6825 19.9925 11.5471 20.2369 11.4085C21.41 10.743 22.7143 10.003 24.1625 9.14997C29.0836 6.2503 34.3711 4.02657 39.8831 2.53846Z" fill="#093F68"/>
<path d="M23.2876 108.118C21.2877 109.951 16.8335 111.295 14.6177 107.548C12.4019 103.801 7.97607 87.7193 7.97607 87.7193L13.1633 83.0383L23.5149 100.071C24.9409 102.486 25.2875 106.29 23.2876 108.118Z" fill="#080C20"/>
<path fill-rule="evenodd" clip-rule="evenodd" d="M17.8617 110.441C18.144 110.482 18.4288 110.503 18.7139 110.504C20.5463 110.459 22.3037 109.765 23.6739 108.545C25.8726 106.529 25.5601 102.423 24.0034 99.7578L13.6461 82.7251C13.5578 82.5812 13.4103 82.4841 13.2435 82.4599C13.0767 82.4357 12.9078 82.4869 12.7825 82.5998L7.5953 87.2808C7.43834 87.4248 7.37476 87.6445 7.43054 87.8503C7.43325 87.8601 7.43688 87.8731 7.4414 87.8895C7.73975 88.9657 11.9294 104.08 14.1233 107.816C14.8957 109.225 16.2768 110.195 17.8617 110.441ZM15.1062 107.246C13.129 103.869 9.27133 90.2193 8.61796 87.8845L13.0381 83.8982L23.0318 100.339C24.367 102.617 24.617 106.119 22.9125 107.702C21.5819 108.895 19.8156 109.479 18.0378 109.314C16.7887 109.13 15.7007 108.363 15.1062 107.246Z" fill="#093F68"/>
<path d="M3.91408 74.3959L8.36574 72.7525L10.3942 78.2725L5.94254 79.916L3.91408 74.3959Z" fill="#080C20"/>
<path fill-rule="evenodd" clip-rule="evenodd" d="M5.41355 80.1113C5.49677 80.3345 5.70986 80.4822 5.94761 80.4814C6.01645 80.4766 6.08383 80.4592 6.14646 80.4302L10.5951 78.7844C10.8877 78.6751 11.0374 78.3495 10.9303 78.0555L8.90197 72.5317C8.8495 72.3904 8.74325 72.2757 8.60654 72.2128C8.46822 72.1558 8.31307 72.1558 8.17475 72.2128L3.72616 73.8585C3.4313 73.9656 3.27872 74.2918 3.38527 74.5874L5.41355 80.1113ZM6.28282 79.183L4.65224 74.7298L8.05544 73.477L9.6917 77.9302L6.28282 79.183Z" fill="#093F68"/>
<path d="M8.07821 72.8562C8.3927 71.6095 8.21353 70.2891 7.57824 69.1718C5.8738 66.1365 4.25458 70.0203 2.52742 64.0466C2.52742 64.0466 0.163925 67.583 1.13546 70.4702C2.19221 73.6421 4.41934 74.2286 4.41934 74.2286L8.07821 72.8562Z" fill="#080C20"/>
<path fill-rule="evenodd" clip-rule="evenodd" d="M4.26037 74.7753C4.30753 74.7813 4.35525 74.7813 4.40241 74.7753C4.47749 74.7897 4.55459 74.7897 4.62967 74.7753L8.28853 73.4257C8.4521 73.3633 8.57786 73.2289 8.62942 73.0612C8.98793 71.6618 8.78391 70.1771 8.06127 68.9269C7.63377 67.9183 6.65989 67.2513 5.56711 67.2185L5.56366 67.2181C4.76375 67.1271 3.97498 67.0374 3.06158 63.8814C3.00076 63.6699 2.82379 63.5125 2.60706 63.4771C2.38607 63.4392 2.16351 63.5351 2.03892 63.722C1.93665 63.8757 -0.466608 67.526 0.578782 70.6467C1.72076 74.0692 4.15242 74.7753 4.26037 74.7753ZM1.65258 70.2708C1.0958 68.6023 1.81166 66.6376 2.37981 65.4361H2.39685C3.31157 67.8848 4.29446 68.2037 5.43644 68.3062C6.1674 68.2961 6.82341 68.7543 7.06702 69.4451C7.57589 70.3488 7.75658 71.4013 7.57835 72.4234L4.39673 73.6022C3.92517 73.4086 2.44798 72.6455 1.65258 70.2708Z" fill="#093F68"/>
<path d="M6.39648 79.7468C7.19757 82.5543 8.26569 85.823 9.53834 89.2797C12.0666 96.1702 14.7255 101.967 16.4868 104.655L18.4014 103.949C17.9924 100.749 16.2652 94.6099 13.7313 87.7193C12.4586 84.2627 11.1576 81.0793 9.95308 78.4199L6.39648 79.7468Z" fill="#080C20"/>
<path fill-rule="evenodd" clip-rule="evenodd" d="M16.0097 104.98C16.1153 105.141 16.2948 105.237 16.4869 105.236C16.5558 105.231 16.6231 105.214 16.6858 105.185L18.6061 104.473C18.843 104.38 18.9892 104.14 18.964 103.887C18.5379 100.521 16.7369 94.2568 14.2655 87.5371C13.0383 84.1886 11.7258 80.9598 10.4702 78.1978C10.3482 77.924 10.0351 77.7919 9.75438 77.896L6.19778 79.2115C5.91816 79.3159 5.76678 79.6194 5.85121 79.9062C6.6807 82.8162 7.77155 86.1305 9.00442 89.479C11.4645 96.1987 14.1575 102.133 16.0097 104.98ZM10.0725 89.0861C8.9192 85.954 7.89086 82.8618 7.08977 80.0999L9.65211 79.1489C10.8282 81.7798 12.0611 84.798 13.1973 87.93C15.5381 94.2853 17.2653 100.202 17.7766 103.585L16.7199 103.972C14.9245 101.045 12.4076 95.4413 10.0725 89.0861Z" fill="#093F68"/>
<path d="M5.36478 84.4492C5.15299 83.8728 5.44798 83.2338 6.02401 83.0212L9.78425 81.633C10.3615 81.4198 11.0022 81.7156 11.2144 82.2932C11.4262 82.8695 11.1312 83.5085 10.5552 83.7212L6.79495 85.1094C6.21768 85.3225 5.57703 85.0268 5.36478 84.4492Z" fill="#080C20"/>
<path fill-rule="evenodd" clip-rule="evenodd" d="M5.68636 85.6351C5.89129 85.7294 6.11422 85.778 6.33973 85.7774C6.52223 85.779 6.7034 85.7462 6.87379 85.6806L10.8565 84.2057C11.2417 84.0622 11.5543 83.7714 11.7258 83.3971C11.9024 83.0232 11.9188 82.5932 11.7712 82.2069L11.686 81.9677C11.3854 81.1648 10.4964 80.7535 9.69179 81.0452L5.71477 82.5258C4.91215 82.8221 4.50039 83.7138 4.79437 84.5189L4.88527 84.7638C5.0249 85.1502 5.31355 85.4641 5.68636 85.6351ZM10.1065 82.1158C10.1539 82.0981 10.2038 82.0885 10.2543 82.0873C10.3066 82.0881 10.3585 82.0977 10.4077 82.1158C10.5077 82.1618 10.5853 82.2458 10.6236 82.3493L10.7145 82.5941C10.7571 82.6942 10.7571 82.8073 10.7145 82.9073C10.672 83.01 10.5869 83.0891 10.4815 83.1237L6.50449 84.6043C6.40265 84.6467 6.28817 84.6467 6.18633 84.6043C6.08869 84.5551 6.01205 84.4722 5.97043 84.3709L5.88521 84.126C5.84664 84.0225 5.85072 83.908 5.89656 83.8075C5.94239 83.7071 6.02621 83.6291 6.12951 83.5907L10.1065 82.1158Z" fill="#093F68"/>
<path d="M11.7919 80.8575C12.3269 80.66 12.9206 80.9341 13.1173 81.4694L14.7229 85.8386C14.9191 86.3728 14.6458 86.965 14.1119 87.162C13.5769 87.3595 12.9832 87.0855 12.7865 86.5502L11.181 82.1809C10.9847 81.6468 11.2581 81.0546 11.7919 80.8575Z" fill="#080C20"/>
<path fill-rule="evenodd" clip-rule="evenodd" d="M12.2542 86.7569C12.4895 87.3838 13.0859 87.8005 13.7541 87.8047C13.9438 87.8038 14.132 87.771 14.3109 87.7079C15.1406 87.401 15.5653 86.4783 15.2597 85.6465L13.6576 81.2843C13.5116 80.8825 13.2107 80.5562 12.8224 80.3789C12.4374 80.2031 11.9992 80.1847 11.6009 80.3276C11.2015 80.4738 10.8767 80.7735 10.6986 81.1605C10.5205 81.5475 10.5037 81.9897 10.6521 82.3891L12.2542 86.7569ZM11.9929 81.3698C12.0456 81.3616 12.0993 81.3616 12.152 81.3698C12.2204 81.3752 12.2865 81.3966 12.3451 81.4324C12.4585 81.4831 12.5466 81.5776 12.5894 81.6944L14.203 86.0223C14.2642 86.1977 14.2144 86.3929 14.0766 86.5173C13.9388 86.6416 13.7401 86.671 13.5723 86.5918C13.4604 86.5409 13.3741 86.4462 13.3337 86.3298L11.7315 81.9677C11.6835 81.8549 11.6835 81.7274 11.7315 81.6146C11.7837 81.5021 11.8774 81.4143 11.9929 81.3698Z" fill="#093F68"/>
<path d="M6.1348 86.5432C5.92301 85.9669 6.218 85.3279 6.79403 85.1152L10.5543 83.727C11.1315 83.5139 11.7722 83.8097 11.9844 84.3872C12.1962 84.9636 11.9012 85.6026 11.3252 85.8152L7.56497 87.2035C6.9877 87.4166 6.34705 87.1208 6.1348 86.5432Z" fill="#080C20"/>
<path fill-rule="evenodd" clip-rule="evenodd" d="M5.65223 86.8538C5.87792 87.4632 6.45811 87.8676 7.10668 87.8674C7.2816 87.8667 7.4549 87.8339 7.61802 87.7706L11.6234 86.2957C12.4268 85.9969 12.8382 85.1035 12.5438 84.2969L12.4529 84.0577C12.1524 83.2547 11.2634 82.8435 10.4587 83.1351L6.48172 84.6158C5.68139 84.9146 5.27071 85.8039 5.56133 86.6089L5.65223 86.8538ZM10.8792 84.1773C10.9261 84.1687 10.9743 84.1687 11.0212 84.1773C11.0839 84.1775 11.1459 84.1911 11.203 84.2171C11.3042 84.2615 11.3824 84.3461 11.4189 84.4506L11.5098 84.6955C11.5864 84.9093 11.4776 85.1451 11.2655 85.2251L7.26008 86.7057C7.15702 86.7456 7.04215 86.7414 6.94229 86.694C6.84242 86.6466 6.76631 86.5603 6.73171 86.4551L6.6408 86.216C6.59851 86.1139 6.59851 85.9991 6.6408 85.8971C6.6882 85.7979 6.77149 85.7205 6.87374 85.6807L10.8792 84.1773Z" fill="#093F68"/>
<path d="M6.89896 88.6315C6.68717 88.0552 6.98216 87.4162 7.55819 87.2035L11.3184 85.8153C11.8957 85.6022 12.5363 85.898 12.7486 86.4756C12.9604 87.0519 12.6654 87.6909 12.0894 87.9036L8.32913 89.2918C7.75186 89.5049 7.11121 89.2091 6.89896 88.6315Z" fill="#080C20"/>
<path fill-rule="evenodd" clip-rule="evenodd" d="M7.22609 89.815C7.42881 89.9099 7.65003 89.9585 7.87377 89.9573C8.06575 89.9619 8.25677 89.929 8.43624 89.8605L12.4133 88.3856C13.2136 88.0868 13.6243 87.1974 13.3337 86.3925L13.2428 86.1476C12.9446 85.3454 12.0573 84.9338 11.2542 85.2251L7.24881 86.7057C6.44848 87.0045 6.0378 87.8938 6.32842 88.6988L6.41932 88.9437C6.56083 89.3308 6.8515 89.6447 7.22609 89.815ZM11.6463 86.2786C11.6916 86.2609 11.7397 86.2513 11.7883 86.2501C11.9528 86.255 12.0983 86.3582 12.1576 86.5121L12.2485 86.7569C12.2869 86.8596 12.2827 86.9734 12.2368 87.0729C12.1908 87.1724 12.1071 87.2493 12.0042 87.2865L8.02717 88.7671C7.92738 88.8099 7.81449 88.8099 7.71469 88.7671C7.61575 88.7196 7.53856 88.6362 7.4988 88.5337L7.40789 88.2888C7.3656 88.1867 7.3656 88.072 7.40789 87.9699C7.45705 87.872 7.53975 87.7952 7.64083 87.7535L11.6463 86.2786Z" fill="#093F68"/>
<path d="M7.67435 90.718C7.46256 90.1416 7.75755 89.5026 8.33358 89.29L12.0938 87.9018C12.6711 87.6886 13.3117 87.9844 13.524 88.562C13.7358 89.1383 13.4408 89.7773 12.8648 89.99L9.10452 91.3782C8.52726 91.5913 7.8866 91.2956 7.67435 90.718Z" fill="#080C20"/>
<path fill-rule="evenodd" clip-rule="evenodd" d="M7.18618 91.0336C7.41187 91.643 7.99206 92.0474 8.64063 92.0472C8.82308 92.0482 9.00413 92.0154 9.17469 91.9504L13.1517 90.4755C13.5381 90.3344 13.8525 90.0448 14.0253 89.6707C14.198 89.2966 14.2149 88.869 14.0721 88.4824L13.9812 88.2375C13.6855 87.433 12.7959 87.0203 11.9927 87.315L8.01567 88.7956C7.21531 89.0943 6.80641 89.9852 7.10095 90.7887L7.18618 91.0336ZM12.4131 88.3628C12.4601 88.3546 12.5082 88.3546 12.5552 88.3628C12.7203 88.3567 12.8736 88.448 12.9472 88.5963L13.0324 88.8411C13.0708 88.9438 13.0666 89.0576 13.0207 89.1571C12.9748 89.2566 12.891 89.3336 12.7881 89.3708L8.81107 90.8514C8.70937 90.8944 8.59462 90.8944 8.49291 90.8514C8.39397 90.8039 8.31678 90.7204 8.27702 90.6179L8.18611 90.373C8.14782 90.2688 8.1527 90.1536 8.19966 90.0531C8.24662 89.9525 8.33176 89.875 8.4361 89.8377L12.4131 88.3628Z" fill="#093F68"/>
<path d="M64.0578 80.9199C59.7058 79.2741 50.9223 78.1978 43.3489 85.9312C35.7755 93.6645 38.3492 103.015 46.3487 106.705C54.3482 110.395 61.1887 108.619 62.7738 103.607C64.3589 98.5961 59.0525 98.2089 61.2171 95.5666C63.3817 92.9242 66.0861 95.8911 68.3757 91.6999C70.6654 87.5086 68.4212 82.5656 64.0578 80.9199Z" fill="#080C20"/>
<path fill-rule="evenodd" clip-rule="evenodd" d="M46.1157 107.224C48.7189 108.489 51.5634 109.179 54.4561 109.245C56.0461 109.285 57.627 108.992 59.0978 108.385C61.1043 107.564 62.6469 105.897 63.3135 103.83C64.2509 100.828 62.9669 99.2738 62.0238 98.1349C61.1886 97.1269 60.9557 96.7738 61.6261 95.9481C62.4101 94.98 63.2453 94.9174 64.302 94.8434L64.3037 94.8432C65.701 94.7408 67.4217 94.6146 68.8472 91.996C69.9644 89.9897 70.1431 87.5919 69.3358 85.4415C68.4526 83.1076 66.6042 81.2716 64.2679 80.4074C58.524 78.2149 49.9052 78.4256 42.9511 85.5326C39.2809 89.2797 37.6787 93.6759 38.4514 97.9071C39.1843 101.91 41.9796 105.31 46.1157 107.224ZM43.7635 86.3298C48.0815 81.9165 53.0698 80.3162 57.5184 80.3162C59.684 80.3088 61.8334 80.6907 63.8646 81.4438C65.8946 82.193 67.5022 83.7857 68.2734 85.8116C68.9599 87.6528 68.8062 89.7031 67.853 91.4209C66.7245 93.5181 65.5734 93.6016 64.2416 93.6982L64.2339 93.6987L64.2203 93.6998C63.1044 93.7849 61.8489 93.8807 60.7568 95.2249C59.4581 96.8109 60.3615 97.8975 61.1559 98.8529L61.1602 98.8581L61.1602 98.8581C62.0636 99.9458 62.9953 101.068 62.2397 103.454C61.6698 105.207 60.3583 106.619 58.6547 107.315C55.5128 108.704 51.1381 108.3 46.5929 106.21C42.7977 104.45 40.2353 101.358 39.5706 97.7192C38.8661 93.8468 40.3547 89.8093 43.7635 86.3298Z" fill="#093F68"/>
<path d="M51.3484 84.0918C51.3939 84.3139 51.5075 84.5189 51.5529 84.741C51.5707 85.3549 51.2583 85.931 50.7348 86.2501C50.2132 86.5554 49.7543 86.9574 49.3826 87.4346C48.9658 88.2823 49.2289 89.308 50.0019 89.8491C50.7823 90.3512 51.7624 90.4261 52.6097 90.0485C53.496 89.684 54.4391 88.9494 55.2914 89.3765C55.5908 89.5767 55.8654 89.8118 56.1095 90.0769C57.2535 90.9797 58.9018 90.8297 59.8649 89.7352C60.7603 88.5962 60.7603 86.9905 59.8649 85.8515C58.6605 84.3595 59.6718 81.8652 57.064 81.626C55.7231 81.4951 50.9905 82.1044 51.3484 84.0918Z" fill="#080C20"/>
<path fill-rule="evenodd" clip-rule="evenodd" d="M55.7345 90.504C56.2957 90.9897 57.0157 91.2512 57.7571 91.2386L58.0184 91.2443C58.8962 91.1801 59.7131 90.7707 60.291 90.1054C61.3565 88.7554 61.3565 86.8484 60.291 85.4984C59.958 84.9985 59.7478 84.4268 59.6774 83.8299L59.6769 83.8275C59.4441 82.6889 59.1533 81.2671 57.1037 81.0623C56.1379 80.9654 52.5415 81.2616 51.2518 82.6738C50.8565 83.0752 50.6843 83.6463 50.7916 84.2C50.822 84.3417 50.8638 84.4808 50.9166 84.6157C50.9497 84.6886 50.9745 84.765 50.9905 84.8435C51.053 85.1681 50.7234 85.5497 50.3939 85.8002L50.0587 86.0394C49.5931 86.3159 49.1951 86.6934 48.894 87.1442C48.3201 88.2471 48.6535 89.6058 49.6724 90.3161C50.6118 90.9326 51.7993 91.0291 52.8256 90.5724C53.0472 90.4812 53.2687 90.373 53.496 90.2592C54.1835 89.889 54.6664 89.7011 55.0414 89.889C55.1981 89.9853 55.3398 90.1042 55.4618 90.2421C55.547 90.3351 55.6381 90.4226 55.7345 90.504ZM55.547 88.8697C55.2974 88.7414 55.0207 88.675 54.7402 88.676C54.11 88.7341 53.5015 88.9367 52.9619 89.2683C52.7858 89.3708 52.5926 89.4676 52.3938 89.5473C51.727 89.8483 50.9549 89.7993 50.3314 89.4163C49.7964 89.0468 49.6045 88.3448 49.8769 87.7535C50.0978 87.4474 50.3804 87.1913 50.7064 87.0018L51.0814 86.7341C51.794 86.2995 52.1941 85.4931 52.1097 84.6613C52.0774 84.5194 52.0337 84.3804 51.979 84.2456C51.9493 84.1695 51.9246 84.0915 51.9052 84.0121C51.8548 83.802 51.9274 83.5814 52.0927 83.4426C52.9676 82.4802 56.0015 82.093 56.9901 82.1955C58.1605 82.3094 58.3252 82.8846 58.5639 84.0577C58.663 84.8336 58.9518 85.5731 59.4047 86.2102C60.1324 87.1339 60.144 88.4341 59.4331 89.3708C59.0493 89.8026 58.5094 90.0629 57.9332 90.094C57.4104 90.1466 56.8885 89.9865 56.4844 89.6498C56.4083 89.584 56.3362 89.5136 56.2685 89.4391C56.0612 89.2105 55.8174 89.018 55.547 88.8697Z" fill="#093F68"/>
<path d="M62.9214 87.7592C62.4758 88.2247 62.1979 88.8259 62.1317 89.4676C62.0829 89.9084 62.2427 90.3467 62.5635 90.6521C62.8427 90.852 63.1808 90.9522 63.5236 90.9368C64.4084 90.9042 65.2591 90.5867 65.9496 90.0314C66.8587 89.3309 68.3756 87.3492 66.9666 86.3982C65.6826 85.5724 63.7339 86.848 62.9214 87.7592Z" fill="#093F68"/>
<path fill-rule="evenodd" clip-rule="evenodd" d="M62.2056 91.1133C62.5837 91.396 63.0467 91.5407 63.5181 91.5233C64.5291 91.4944 65.5029 91.1343 66.2906 90.4983C67.0122 89.9459 68.1428 88.6191 68.1087 87.3947C68.0932 86.8017 67.7815 86.2562 67.2792 85.9426C65.7111 84.889 63.5181 86.2387 62.5011 87.3776C61.9649 87.9432 61.6346 88.6735 61.5636 89.4505C61.499 90.0759 61.7378 90.6944 62.2056 91.1133ZM62.6772 89.5245C62.7274 89.005 62.954 88.5185 63.3192 88.1464L63.3419 88.1521C64.143 87.2694 65.785 86.3298 66.6486 86.8993C66.8449 87.0061 66.9687 87.2106 66.9724 87.4346C66.9951 88.1407 66.1713 89.16 65.6032 89.5985C65.0178 90.088 64.2857 90.3667 63.5237 90.3901C63.312 90.402 63.1018 90.3483 62.9215 90.2363C62.7375 90.0479 62.6477 89.7865 62.6772 89.5245Z" fill="#093F68"/>
<path d="M66.6087 85.3788C66.3814 84.8492 65.944 84.2399 65.3815 84.3708C64.819 84.5018 64.6259 85.1111 64.535 85.6806C64.2736 87.1612 64.2282 88.6703 63.9668 90.1509C63.923 90.2854 63.944 90.4327 64.0236 90.5496C64.0965 90.6112 64.1896 90.6437 64.285 90.6407C65.446 90.6708 66.5241 90.0401 67.0689 89.012C67.5689 87.9585 67.0405 86.3924 66.6087 85.3788Z" fill="#080C20"/>
<path fill-rule="evenodd" clip-rule="evenodd" d="M64.2224 91.1988H64.4497C65.7607 91.151 66.9481 90.4096 67.5688 89.2512C68.0404 88.3002 67.8927 86.9619 67.1314 85.1681C66.7109 84.1829 65.9553 83.6875 65.2735 83.8185C64.5917 83.9495 64.1599 84.536 63.9781 85.5668C63.8584 86.2504 63.7864 86.9244 63.7139 87.6021C63.7073 87.6639 63.7007 87.7258 63.6941 87.7877C63.6902 87.8236 63.6863 87.8596 63.6825 87.8956C63.6067 88.6025 63.5284 89.3327 63.3986 90.0371C63.3143 90.3552 63.3931 90.6944 63.6088 90.9425C63.7753 91.1002 63.9935 91.1914 64.2224 91.1988ZM65.1201 85.7604C65.2167 85.1852 65.3928 84.9346 65.5065 84.9346V84.9233C65.6712 84.9233 65.9212 85.2137 66.1087 85.6066C66.8757 87.4175 66.7848 88.3116 66.5746 88.7444C66.163 89.4872 65.4129 89.9792 64.569 90.0598C64.694 89.3366 64.7735 88.602 64.8474 87.8959C64.8505 87.8661 64.8536 87.8363 64.8567 87.8065C64.9276 87.1284 65.0004 86.4313 65.1201 85.7604Z" fill="#093F68"/>
<path d="M44.2295 90.2649C43.1841 90.6407 42.1558 91.4607 42.1842 92.5086C42.2533 93.0127 42.35 93.5127 42.4739 94.0063C42.633 95.2192 41.9626 96.5859 42.6387 97.5996C43.1401 98.1985 43.8813 98.5428 44.6613 98.5392C45.7976 98.636 47.1384 98.3399 47.7009 97.3319C47.7835 97.113 47.918 96.9176 48.0929 96.7625C48.2796 96.6674 48.4857 96.6168 48.6951 96.6144C49.4267 96.4987 50.0449 96.0086 50.3257 95.3217C50.7745 94.1828 49.9848 92.9641 49.1894 92.1612C48.2463 91.1817 46.7805 90.0257 45.3544 90.0371C44.9699 90.0536 44.5903 90.1305 44.2295 90.2649Z" fill="#080C20"/>
<path fill-rule="evenodd" clip-rule="evenodd" d="M44.6157 99.1258H45.0929C46.5133 99.1258 47.6553 98.5791 48.1723 97.5882C48.181 97.5724 48.1919 97.5567 48.2028 97.5409C48.2273 97.5054 48.2518 97.4699 48.2518 97.4344C48.288 97.3581 48.3317 97.2856 48.3825 97.218C48.4582 97.1953 48.5365 97.1819 48.6154 97.1782H48.7575C49.6893 97.0332 50.4768 96.4083 50.8312 95.5324C51.2744 94.3878 50.8369 93.0552 49.5983 91.7625C48.7802 90.9197 47.1212 89.4847 45.3713 89.4847C44.9172 89.4967 44.4681 89.5833 44.0419 89.7409C42.8999 90.151 41.5818 91.1247 41.6159 92.5313C41.6328 92.8691 41.69 93.2037 41.7863 93.5279C41.8375 93.7329 41.8829 93.9208 41.9113 94.0974C41.9428 94.5273 41.9218 94.9595 41.8488 95.3844L41.8474 95.3962C41.7455 96.23 41.6354 97.1307 42.167 97.9299C42.7562 98.6849 43.6594 99.126 44.6157 99.1258ZM44.4396 90.7717C44.7461 90.6597 45.0681 90.5963 45.3941 90.5838V90.6122C46.7747 90.6122 48.2405 91.9733 48.82 92.5598C49.2461 93.004 50.1949 94.1372 49.8142 95.1167C49.6109 95.6151 49.163 95.9712 48.6325 96.0563H48.5245C48.2679 96.0708 48.0184 96.147 47.7973 96.2784C47.5698 96.4442 47.3912 96.6685 47.2803 96.9276L47.2235 97.0415C46.7803 97.8331 45.6384 98.0381 44.7236 97.9584C44.1195 97.9671 43.5405 97.7163 43.1328 97.2693C42.8317 96.8194 42.9056 96.2044 42.9965 95.4926C43.0812 94.9731 43.1003 94.4451 43.0533 93.9208C43.0188 93.684 42.9675 93.4499 42.8999 93.2204C42.8286 92.9794 42.7847 92.731 42.7692 92.4801C42.7351 91.717 43.593 91.0792 44.4396 90.7717Z" fill="#093F68"/>
<path d="M49.4395 101.956C49.5081 102.688 49.8866 103.356 50.4792 103.79C51.0674 104.214 51.7397 104.508 52.4506 104.65C54.3026 105.091 56.24 105.017 58.0526 104.433C58.3874 104.345 58.6968 104.179 58.9559 103.949C59.4388 103.352 59.4388 102.497 58.9559 101.899C58.4712 101.33 57.8405 100.905 57.1322 100.669C55.8425 100.134 55.6948 98.0381 53.9165 97.9811C53.1495 97.9811 52.7177 98.4766 52.212 98.9663C51.3939 99.7636 51.3598 99.6497 50.2576 99.6554C49.2861 99.6611 49.4054 101.324 49.4395 101.956Z" fill="#080C20"/>
<path fill-rule="evenodd" clip-rule="evenodd" d="M52.3198 105.208C53.1544 105.401 54.0084 105.499 54.8651 105.498C56.0075 105.499 57.1427 105.318 58.2285 104.963C58.654 104.853 59.0449 104.638 59.3648 104.336C60.0361 103.534 60.0551 102.37 59.4103 101.546C58.8629 100.893 58.1477 100.403 57.3422 100.128C56.9275 99.8818 56.5892 99.5249 56.365 99.0973C55.8651 98.3456 55.2458 97.4287 53.9277 97.3889C53.163 97.4119 52.4477 97.7725 51.9733 98.374L51.8142 98.5335C51.5149 98.8181 51.3765 98.9498 51.2119 99.0107C51.0703 99.0631 50.9093 99.0631 50.6097 99.0631H50.2461C49.9081 99.0572 49.5837 99.196 49.3541 99.4446C48.7729 100.061 48.8362 101.234 48.8705 101.869L48.8712 101.882V101.962C48.9417 102.869 49.402 103.7 50.1325 104.24C50.7818 104.719 51.5286 105.05 52.3198 105.208ZM50.1722 100.225C50.1957 100.214 50.2226 100.214 50.2461 100.225L50.5642 100.202C51.5017 100.208 51.7517 100.145 52.5698 99.3535L52.7403 99.1884C53.1948 98.7556 53.4732 98.5278 53.8765 98.5278C54.581 98.5506 54.9219 98.9948 55.4105 99.7237C55.7512 100.342 56.2672 100.846 56.8934 101.17C57.5051 101.373 58.0534 101.732 58.4842 102.212C58.7939 102.588 58.8193 103.124 58.5467 103.528C58.3498 103.691 58.1187 103.808 57.8706 103.869C56.1568 104.418 54.3264 104.489 52.5755 104.074C51.9426 103.952 51.3437 103.694 50.8199 103.317C50.359 102.984 50.0614 102.471 50.0018 101.905V101.819C49.9507 100.937 50.0131 100.401 50.1722 100.225Z" fill="#093F68"/>
<path d="M136.439 110.801V96.3412C136.439 93.5236 135.318 90.8215 133.325 88.8297C131.331 86.8379 128.627 85.7198 125.808 85.7214H109.44C106.621 85.7198 103.917 86.8379 101.923 88.8297C99.9295 90.8215 98.8093 93.5236 98.8093 96.3412V110.801H136.439Z" fill="#080C20"/>
<path fill-rule="evenodd" clip-rule="evenodd" d="M98.8092 111.401H136.438C136.77 111.401 137.039 111.132 137.039 110.801V96.3412C137.032 90.1474 132.011 85.128 125.814 85.1214H109.44C103.241 85.1247 98.2156 90.1451 98.209 96.3412V110.801C98.209 111.132 98.4777 111.401 98.8092 111.401ZM135.838 110.201H99.4095V96.3412C99.4161 90.8078 103.904 86.3247 109.44 86.3214H125.814C131.348 86.328 135.832 90.8101 135.838 96.3412V110.201Z" fill="#093F68"/>
<path d="M107.777 111.401C107.445 111.401 107.177 111.132 107.177 110.801V97.0011C107.177 96.6697 107.445 96.4011 107.777 96.4011C108.109 96.4011 108.377 96.6697 108.377 97.0011V110.801C108.377 111.132 108.109 111.401 107.777 111.401Z" fill="#093F68"/>
<path d="M133.563 111.401C133.232 111.401 132.963 111.132 132.963 110.801V97.0011C132.963 96.6697 133.232 96.4011 133.563 96.4011C133.895 96.4011 134.164 96.6697 134.164 97.0011V110.801C134.164 111.132 133.895 111.401 133.563 111.401Z" fill="#093F68"/>
<path d="M121.192 90.4012C121.33 97.1751 121.33 103.919 121.192 110.399V90.4012Z" fill="#5DD0E5"/>
<path d="M121.192 110.999C120.861 110.999 120.592 110.73 120.592 110.399C120.736 103.919 120.736 97.1992 120.592 90.4253C120.592 90.0939 120.861 89.8253 121.192 89.8253C121.524 89.8253 121.793 90.0939 121.793 90.4253C121.937 97.2172 121.937 103.955 121.793 110.453C121.764 110.763 121.504 111 121.192 110.999Z" fill="#093F68"/>
<path d="M117.567 83.3214H124.199V87.4853C124.199 89.0991 122.891 90.4073 121.276 90.4073H120.484C118.87 90.4073 117.561 89.0991 117.561 87.4853V83.3214H117.567Z" fill="#080C20"/>
<path fill-rule="evenodd" clip-rule="evenodd" d="M120.484 91.0013H121.276C123.22 91.0013 124.796 89.4281 124.8 87.4853V83.3214C124.8 82.9901 124.531 82.7214 124.199 82.7214H117.567C117.235 82.7214 116.967 82.9901 116.967 83.3214V87.4853C116.97 89.4258 118.543 90.998 120.484 91.0013ZM118.167 87.4853V83.9214H123.599V87.4853C123.596 88.7654 122.557 89.8013 121.276 89.8013H120.484C119.204 89.8013 118.167 88.7644 118.167 87.4853Z" fill="#093F68"/>
<path d="M115.508 39.8883C116.799 40.101 118.052 40.5055 119.224 41.0883C118.461 39.7083 117.393 38.5202 116.102 37.6144C121.054 37.6504 126.198 38.6464 130.124 41.6703C136.829 46.8302 134.926 53.922 133.864 61.0439C133.305 64.6918 132.501 68.2978 131.829 71.9217L100.784 72.6477C100.784 72.6477 99.7337 65.1238 99.5837 58.8119C99.6132 57.4076 99.7153 56.0058 99.8898 54.612C100.022 52.8541 99.9378 53.0461 98.2151 52.2781C97.945 52.1641 97.6149 52.0081 97.5669 51.7261C97.3208 50.8801 99.0074 50.9281 99.4336 50.1541C98.3568 50.1351 97.2959 49.8919 96.3184 49.4401C98.6301 46.05 102.448 43.9973 106.552 43.9383L104.116 42.3843C103.904 42.2813 103.741 42.1008 103.659 41.8803C103.581 41.4723 104.067 41.2023 104.464 41.0763C108.017 39.9543 111.907 39.2583 115.508 39.8883Z" fill="#093F68"/>
<path fill-rule="evenodd" clip-rule="evenodd" d="M100.184 72.7317C100.226 73.0299 100.483 73.2506 100.784 73.2476H100.796L131.859 72.5877C132.152 72.5924 132.406 72.3843 132.459 72.0957C132.674 70.9508 132.899 69.811 133.124 68.6669C133.145 68.5639 133.165 68.4608 133.185 68.3577L133.227 68.1481C133.682 65.8576 134.144 63.5288 134.494 61.1999C134.59 60.5699 134.698 59.9099 134.8 59.3099L134.8 59.3097C135.844 52.8539 136.925 46.1761 130.532 41.2623C126.967 38.5144 122.129 37.1104 116.126 37.0624C115.858 37.0616 115.617 37.2297 115.526 37.4824C115.447 37.7321 115.54 38.0041 115.754 38.1544C116.422 38.6262 117.027 39.1806 117.555 39.8043C116.91 39.598 116.253 39.4357 115.586 39.3183C112.381 38.7543 108.575 39.1563 104.272 40.5183C103.413 40.8063 102.945 41.3643 103.071 42.0063C103.176 42.3915 103.437 42.7155 103.791 42.9003L104.722 43.5003C101.102 44.061 97.8781 46.0993 95.8201 49.1281C95.724 49.2731 95.6956 49.4526 95.7421 49.6201C95.784 49.7918 95.904 49.934 96.0662 50.0041C96.5766 50.2395 97.1095 50.4224 97.6569 50.5501C97.1172 50.765 96.8289 51.3543 96.9906 51.9121C97.1595 52.3552 97.5187 52.6988 97.969 52.8481L98.4912 53.0701C98.7771 53.1661 99.0464 53.3057 99.2895 53.484C99.3457 53.8499 99.3457 54.2222 99.2895 54.588C99.2535 55.026 99.2115 55.458 99.1635 55.89C99.0389 56.8629 98.9787 57.8431 98.9834 58.8239C99.1069 64.4399 99.9707 71.084 100.151 72.4708C100.172 72.6337 100.184 72.7241 100.184 72.7317ZM98.4672 51.7501C98.3785 51.7116 98.2923 51.6675 98.2091 51.6181V51.5941C98.259 51.5652 98.3215 51.534 98.3836 51.5031C98.4635 51.4633 98.5426 51.4238 98.5933 51.3901C99.1264 51.2291 99.5896 50.893 99.9078 50.4361C100.015 50.2505 100.015 50.0218 99.9078 49.8361C99.8023 49.6534 99.6086 49.5395 99.3976 49.5361C98.6518 49.5223 97.9127 49.3928 97.2067 49.1521C99.4404 46.2725 102.865 44.5674 106.51 44.5202C106.786 44.5312 107.034 44.353 107.111 44.0882C107.184 43.8318 107.078 43.5581 106.853 43.4163L104.452 41.8623L104.332 41.7783C104.433 41.717 104.542 41.6686 104.656 41.6343C108.803 40.3323 112.405 39.9363 115.406 40.4703C116.64 40.6893 117.834 41.0938 118.947 41.6703C119.182 41.7937 119.47 41.7484 119.656 41.5588C119.841 41.3692 119.88 41.0803 119.752 40.8483C119.232 39.9168 118.578 39.0659 117.813 38.3224C122.747 38.5984 126.745 39.9003 129.746 42.1983C135.565 46.678 134.591 52.7102 133.559 59.0966L133.557 59.1059C133.455 59.7359 133.353 60.3719 133.257 61.0079C132.901 63.3573 132.428 65.736 131.97 68.0339L131.955 68.1117C131.739 69.2037 131.523 70.2957 131.318 71.3877L101.306 72.0417C101.066 70.1997 100.31 64.0498 100.196 58.7999C100.192 57.8691 100.25 56.9391 100.37 56.016C100.418 55.572 100.46 55.128 100.496 54.678C100.64 52.8901 100.478 52.6081 98.9774 51.9721L98.4672 51.7501Z" fill="#093F68"/>
<ellipse cx="134.917" cy="70.2418" rx="4.31574" ry="4.8179" transform="rotate(-1.25 134.917 70.2418)" fill="#080C20"/>
<path fill-rule="evenodd" clip-rule="evenodd" d="M131.498 74.1116C132.376 75.0827 133.622 75.6401 134.932 75.6476H135.034C136.375 75.6074 137.634 74.9934 138.491 73.9616C139.395 72.89 139.872 71.5227 139.83 70.1217C139.764 67.1338 137.489 64.7578 134.794 64.8118C133.451 64.8518 132.19 65.4657 131.33 66.4978C129.489 68.7261 129.561 71.9666 131.498 74.1116ZM134.824 66.0478H134.896C136.919 66.0478 138.575 67.8478 138.629 70.1997C138.657 71.2932 138.285 72.3593 137.585 73.1996C136.944 73.9699 136.005 74.4304 135.004 74.4656C134.001 74.4838 133.041 74.063 132.375 73.3136C130.865 71.6165 130.809 69.0757 132.243 67.3138C132.879 66.5379 133.821 66.076 134.824 66.0478Z" fill="#093F68"/>
<path d="M120.172 86.2794C110.7 86.4834 101.972 74.9936 101.774 65.6758L104.043 66.4858L103.821 59.8859C103.821 59.8859 115.616 56.502 113.935 51.0241C113.935 51.0241 117.501 55.08 122.501 54.96C131.69 54.732 135.238 52.2241 135.238 52.2241L135.604 69.0657C135.802 78.3836 129.638 86.0754 120.172 86.2794Z" fill="#080C20"/>
<path fill-rule="evenodd" clip-rule="evenodd" d="M101.174 65.6938C101.378 75.1256 110.214 86.8794 119.92 86.8794L120.208 86.8854C124.727 86.8522 129.016 84.8866 131.991 81.4855C134.896 78.012 136.406 73.5836 136.228 69.0597L135.862 52.2181C135.859 51.9951 135.732 51.7923 135.533 51.6915C135.334 51.5908 135.096 51.6087 134.914 51.7381L134.913 51.7386C134.844 51.7847 131.312 54.1511 122.513 54.366H122.285C117.735 54.366 114.386 50.6701 114.386 50.6341C114.199 50.4206 113.889 50.3663 113.642 50.5038C113.394 50.6414 113.276 50.9333 113.359 51.2041C113.608 52.0074 113.508 52.8781 113.083 53.604C111.186 57.102 103.731 59.2979 103.653 59.2979C103.388 59.3749 103.21 59.6224 103.221 59.8979L103.413 65.6038L101.973 65.0938C101.783 65.0273 101.573 65.0597 101.413 65.1803C101.252 65.3008 101.163 65.4935 101.174 65.6938ZM119.956 85.6794C112.549 85.6794 103.137 76.8656 102.411 66.5398L103.839 67.0558C104.028 67.1224 104.237 67.0909 104.398 66.9718C104.558 66.8548 104.65 66.6661 104.644 66.4678L104.434 60.3419C106.162 59.7899 112.273 57.642 114.14 54.198C114.418 53.6901 114.599 53.1346 114.674 52.5601C116.174 53.808 118.965 55.662 122.513 55.56C129.284 55.398 133.059 54.012 134.656 53.2381L135.004 69.0837C135.177 73.3107 133.771 77.4509 131.06 80.6995C128.303 83.8369 124.338 85.6487 120.16 85.6794H119.956Z" fill="#093F68"/>
<ellipse cx="115.501" cy="67.39" rx="1.56063" ry="1.55997" transform="rotate(-1.25 115.501 67.39)" fill="#093F68"/>
<ellipse cx="130.526" cy="67.0678" rx="1.56063" ry="1.55997" fill="#093F68"/>
<path d="M123.713 71.6217C123.259 71.6212 122.806 71.5891 122.357 71.5257C122.142 71.4935 121.961 71.3494 121.882 71.1477C121.803 70.946 121.837 70.7173 121.972 70.5477C122.107 70.3782 122.322 70.2935 122.537 70.3257C123.263 70.4305 124.001 70.4305 124.728 70.3257C124.728 69.7977 124.127 68.2377 123.341 66.8097C123.264 66.6698 123.247 66.505 123.292 66.3519C123.337 66.1987 123.441 66.0699 123.581 65.9938C123.87 65.837 124.231 65.9412 124.392 66.2278C124.992 67.2777 126.27 69.8277 125.82 70.8897C125.717 71.1585 125.496 71.3645 125.22 71.4477C124.727 71.5713 124.221 71.6298 123.713 71.6217Z" fill="#093F68"/>
<path d="M105.19 66.7918C105.19 66.7918 100.988 64.0318 98.8694 67.7517C96.7505 71.4717 99.0074 77.6815 105.778 75.7136" fill="#080C20"/>
<path d="M103.305 76.6915C101.545 76.7554 99.8587 75.9806 98.7612 74.6036C97.2107 72.5158 97.0434 69.7087 98.335 67.4517C98.8873 66.3916 99.8653 65.6169 101.024 65.3218C103.215 64.8058 105.418 66.2338 105.508 66.2938C105.782 66.4769 105.857 66.8464 105.676 67.1217C105.495 67.3976 105.125 67.4753 104.848 67.2957C104.848 67.2957 102.981 66.0958 101.294 66.4918C100.462 66.7129 99.7641 67.2811 99.3794 68.0517C98.3511 69.8824 98.4775 72.1429 99.7035 73.8476C100.94 75.4196 103.035 75.8696 105.598 75.1256C105.916 75.0328 106.249 75.2155 106.342 75.5336C106.435 75.8517 106.252 76.1848 105.934 76.2776C105.081 76.5368 104.196 76.6762 103.305 76.6915Z" fill="#093F68"/>
<path d="M118.689 62.9578H111.709C111.046 62.9578 110.508 62.4206 110.508 61.7578C110.508 61.0951 111.046 60.5579 111.709 60.5579H118.683C119.346 60.5579 119.884 61.0951 119.884 61.7578C119.884 62.4206 119.346 62.9578 118.683 62.9578H118.689Z" fill="#093F68"/>
<path d="M132.453 62.9578H125.478C124.815 62.9578 124.278 62.4206 124.278 61.7578C124.278 61.0951 124.815 60.5579 125.478 60.5579H132.453C133.116 60.5579 133.653 61.0951 133.653 61.7578C133.653 62.4206 133.116 62.9578 132.453 62.9578Z" fill="#093F68"/>
<path d="M125.478 76.0856H121.276C121.276 76.0856 121.036 80.2855 123.551 80.4355C125.214 80.5375 125.478 76.0856 125.478 76.0856Z" fill="#093F68"/>
<path fill-rule="evenodd" clip-rule="evenodd" d="M123.533 81.0475H123.623C124.011 81.0432 124.383 80.8908 124.662 80.6215C125.862 79.5595 126.102 76.4636 126.102 76.1096C126.111 75.9456 126.053 75.7852 125.94 75.6656C125.827 75.5436 125.668 75.4741 125.502 75.4736H121.3C120.969 75.4736 120.7 75.7422 120.7 76.0736C120.592 77.8495 121.078 80.8975 123.533 81.0475ZM123.617 79.8355C122.219 79.7455 121.955 77.7055 121.913 76.6855H124.836C124.698 77.8195 124.374 79.2775 123.857 79.7335C123.795 79.7996 123.708 79.8366 123.617 79.8355Z" fill="#093F68"/>
<path d="M180.778 40.8483C176.865 40.3983 172.543 41.9403 169.458 44.1062C164.734 47.4182 162.255 52.5061 161.727 58.1279L160.328 73.2476C159.638 80.6755 157.765 89.0213 164.74 94.1332C168.341 96.7792 172.921 97.7331 177.381 98.1231C182.937 98.6755 188.547 98.1312 193.894 96.5212C198.179 95.1532 204.476 92.5012 205.088 87.3473C205.424 84.5034 203.738 81.8635 202.885 79.1215C201.084 73.3556 203.041 67.1218 202.639 61.0919C202.225 54.87 196.907 41.4603 188.521 43.6442C188.11 43.8027 187.671 43.8722 187.231 43.8482C186.77 43.7118 186.355 43.4526 186.03 43.0982C184.554 41.825 182.719 41.0392 180.778 40.8483Z" fill="#080C20"/>
<path fill-rule="evenodd" clip-rule="evenodd" d="M177.321 98.6931C178.81 98.8191 180.262 98.8851 181.691 98.8851C185.884 98.9292 190.06 98.324 194.068 97.0911C201.277 94.7872 205.184 91.5352 205.671 87.4193C205.928 85.2551 205.114 83.2406 204.328 81.298L204.326 81.2935C204.307 81.2464 204.288 81.1993 204.269 81.1521C203.975 80.4232 203.675 79.6801 203.444 78.9475C202.393 75.5216 202.675 71.9576 202.993 68.1897C203.249 65.8209 203.327 63.4363 203.228 61.0559C202.891 56.322 199.89 47.9221 195.088 44.4482C193.191 42.964 190.71 42.4472 188.378 43.0502L188.113 43.1222C187.867 43.2169 187.603 43.2598 187.339 43.2482C187.023 43.149 186.737 42.9739 186.505 42.7382L186.403 42.6482C184.842 41.2944 182.901 40.4561 180.844 40.2483C176.457 39.7503 171.907 41.6583 169.116 43.6142C164.464 46.8722 161.727 51.8761 161.127 58.0739L159.722 73.1696C159.665 73.7768 159.599 74.3936 159.532 75.0129C159.507 75.2442 159.482 75.4759 159.458 75.7076C158.726 82.3374 157.903 89.8553 164.374 94.5952C167.543 96.8931 171.661 98.2191 177.321 98.6931ZM169.782 44.5982C172.129 42.9662 175.748 41.3703 179.386 41.3703C179.837 41.3716 180.288 41.3976 180.736 41.4483C182.551 41.6178 184.268 42.3451 185.652 43.5302L185.748 43.6142C186.131 44.0112 186.618 44.292 187.153 44.4242C187.595 44.4767 188.044 44.4232 188.462 44.2682L188.696 44.2022C190.687 43.6889 192.804 44.1325 194.422 45.4022C198.942 48.6541 201.769 56.616 202.069 61.1099C202.16 63.4326 202.08 65.7588 201.829 68.0697L201.824 68.1246C201.52 71.8215 201.204 75.6475 202.333 79.2775C202.574 80.0485 202.882 80.8143 203.18 81.5556C203.202 81.6103 203.224 81.665 203.246 81.7194C204.014 83.6094 204.734 85.3974 204.518 87.2573C204.062 90.8573 200.436 93.7792 193.714 95.9272C188.444 97.5151 182.912 98.0493 177.435 97.4991C172.003 97.0431 168.095 95.8132 165.094 93.6232C159.188 89.2973 159.938 82.4334 160.664 75.8336C160.69 75.5896 160.716 75.346 160.742 75.1032C160.808 74.492 160.873 73.8847 160.928 73.2836L162.297 58.1819C162.843 52.344 165.43 47.6461 169.782 44.5982Z" fill="#093F68"/>
<path d="M198.539 110.801V97.1092C198.539 94.4406 197.479 91.8813 195.591 89.9944C193.703 88.1074 191.143 87.0474 188.473 87.0474H172.963C171.364 87.0521 169.789 87.4345 168.365 88.1633C165.01 89.8852 162.901 93.3392 162.903 97.1092V110.801H198.539Z" fill="#080C20"/>
<path fill-rule="evenodd" clip-rule="evenodd" d="M162.903 111.401H198.54C198.871 111.401 199.14 111.132 199.14 110.801V97.1091C199.133 91.2235 194.362 86.454 188.474 86.4473H172.963C172.074 86.4462 171.189 86.5592 170.328 86.7833C165.604 87.9835 162.298 92.2369 162.303 97.1091V110.801C162.303 111.132 162.572 111.401 162.903 111.401ZM197.939 110.201H163.503V97.0971C163.498 93.5554 165.481 90.3102 168.636 88.6973C169.268 88.3739 169.935 88.1204 170.622 87.9413C171.387 87.7466 172.174 87.6478 172.963 87.6473H188.474C193.699 87.6539 197.933 91.8863 197.939 97.1091V110.201Z" fill="#093F68"/>
<path d="M186.781 87.0474C186.036 91.5233 182.651 94.9132 178.599 94.9132C174.644 94.9132 171.325 91.6853 170.472 87.3654C171.285 87.1531 172.123 87.0462 172.963 87.0474H186.781Z" fill="#080C20"/>
<path fill-rule="evenodd" clip-rule="evenodd" d="M169.884 87.4793C170.796 92.2072 174.398 95.5131 178.599 95.5131C182.873 95.5131 186.565 91.9912 187.363 87.1493C187.391 86.9749 187.34 86.7971 187.225 86.6633C187.112 86.5278 186.945 86.4488 186.769 86.4473H172.963C172.072 86.4466 171.184 86.5596 170.322 86.7833C170.015 86.8631 169.823 87.168 169.884 87.4793ZM178.599 94.3132C175.148 94.3132 172.171 91.6672 171.192 87.8153C171.776 87.7047 172.369 87.6484 172.963 87.6473H186.048C185.124 91.5472 182.051 94.3132 178.599 94.3132Z" fill="#093F68"/>
<path d="M160.034 70.9857C159.92 73.4336 162.057 76.8115 164.89 76.9435C167.723 77.0755 170.112 75.2096 170.232 72.7436C170.352 70.2777 168.149 68.2017 165.316 68.0697C162.483 67.9377 160.154 68.5377 160.034 70.9857Z" fill="#080C20"/>
<path fill-rule="evenodd" clip-rule="evenodd" d="M164.86 77.5555H165.178C168.197 77.5555 170.7 75.4736 170.832 72.8036C170.886 71.4149 170.324 70.0732 169.296 69.1377C168.219 68.1354 166.817 67.554 165.346 67.4997C164.01 67.3661 162.661 67.549 161.409 68.0337C160.227 68.5328 159.453 69.6852 159.44 70.9677C159.43 72.5004 159.935 73.9922 160.874 75.2036C161.783 76.5455 163.246 77.4089 164.86 77.5555ZM161.901 69.1137C162.753 68.783 163.664 68.6319 164.578 68.6697L165.28 68.6997C166.464 68.7364 167.594 69.2011 168.461 70.0077C169.234 70.706 169.66 71.7089 169.626 72.7496C169.524 74.8496 167.429 76.4756 164.914 76.3496C163.662 76.2007 162.536 75.5154 161.829 74.4716C161.061 73.4821 160.639 72.268 160.628 71.0157C160.62 70.1802 161.125 69.4251 161.901 69.1137Z" fill="#093F68"/>
<path d="M178.263 86.8374C182.37 87.0296 186.385 85.5831 189.424 82.8162C192.463 80.0492 194.278 76.1885 194.47 72.0837L194.818 64.8838C194.998 61.1579 189.662 53.922 185.946 53.748C185.946 53.748 185.172 57.24 179.176 60.0419C174.974 61.9979 169.212 61.8419 164.17 57.954L163.569 70.5537C163.355 74.6613 164.784 78.6855 167.54 81.7398C170.296 84.7941 174.154 86.628 178.263 86.8374Z" fill="#080C20"/>
<path fill-rule="evenodd" clip-rule="evenodd" d="M178.233 87.4553H179.014C187.566 87.4093 194.595 80.6989 195.034 72.1617L195.382 64.9618C195.49 62.6818 193.852 59.6939 192.279 57.6659C190.184 54.954 187.813 53.286 185.934 53.196C185.65 53.1884 185.399 53.3813 185.334 53.658C185.328 53.694 184.5 56.928 178.9 59.5439C175.352 61.2059 169.704 61.5479 164.494 57.528C164.32 57.3996 164.091 57.3744 163.894 57.462C163.69 57.5556 163.556 57.7545 163.545 57.9779L162.945 70.5777C162.513 79.455 169.353 87.0059 178.233 87.4553ZM164.146 70.6137L164.698 59.1119C169.018 62.158 174.622 62.7073 179.452 60.5579C184.332 58.2779 185.904 55.518 186.373 54.378C187.831 54.69 189.704 56.154 191.385 58.3259C193.197 60.6659 194.314 63.2218 194.236 64.8298L193.894 72.0297C193.499 80.2523 186.514 86.6003 178.287 86.2134C170.079 85.7962 163.755 78.8201 164.146 70.6137Z" fill="#093F68"/>
<path d="M172.333 65.3878L165.496 65.0998C164.833 65.0716 164.319 64.5115 164.347 63.8488C164.375 63.1861 164.935 62.6717 165.598 62.6998L172.429 62.9818C173.092 62.9951 173.619 63.5431 173.606 64.2058C173.592 64.8685 173.044 65.395 172.381 65.3818L172.333 65.3878Z" fill="#093F68"/>
<path d="M195.142 68.3158C195.142 68.3158 197.489 60.4619 193.071 53.4061C188.654 46.3502 176.559 45.2522 171.685 48.0662C164.062 52.4581 164.14 57.972 164.14 57.972C164.14 57.972 163.077 42.6543 180.946 43.5723C197.039 44.4062 200.424 57.858 195.142 68.3158Z" fill="#093F68"/>
<path fill-rule="evenodd" clip-rule="evenodd" d="M194.92 68.8737C194.991 68.8997 195.066 68.9139 195.142 68.9157C195.368 68.915 195.575 68.7875 195.676 68.5857C198.708 62.5678 198.816 55.782 195.959 50.8621C194.008 47.5202 189.83 43.4342 180.952 42.9782C175.04 42.6902 170.484 44.1002 167.483 47.1782C163.324 51.4106 163.515 57.2635 163.538 57.9697C163.539 58.0003 163.539 58.0212 163.539 58.0319C163.553 58.3633 163.832 58.6212 164.164 58.6079C164.495 58.5947 164.753 58.3153 164.74 57.9839C164.74 57.7739 164.782 52.746 171.985 48.6001C176.793 45.8282 188.359 47.0282 192.567 53.742C196.547 60.0924 194.786 67.2425 194.584 68.0642C194.572 68.1112 194.566 68.1375 194.566 68.1417C194.475 68.4407 194.629 68.7591 194.92 68.8737ZM193.582 53.088C190.52 48.1921 183.996 45.9962 178.419 45.9962H178.431C175.676 45.9962 173.149 46.5302 171.385 47.5441C169.09 48.7948 167.099 50.5337 165.55 52.638C166.121 50.8978 167.079 49.3098 168.353 47.9941C171.127 45.1742 175.352 43.8902 180.898 44.1722C187.501 44.5142 192.345 47.0342 194.92 51.4681C196.823 54.732 197.297 58.8959 196.373 63.0958C196.392 59.5653 195.425 56.0995 193.582 53.088Z" fill="#093F68"/>
<ellipse cx="168.752" cy="69.6656" rx="1.36797" ry="1.36855" transform="rotate(-87.23 168.752 69.6656)" fill="#093F68"/>
<path fill-rule="evenodd" clip-rule="evenodd" d="M164.863 69.3597C164.83 72.2581 167.135 74.6443 170.034 74.7116H170.28C173.179 74.6443 175.485 72.2581 175.451 69.3597C175.417 66.4612 173.057 64.1293 170.157 64.1293C167.257 64.1293 164.897 66.4612 164.863 69.3597ZM166.556 69.8071C166.531 67.7179 168.191 65.9967 170.28 65.9458H170.466C172.556 65.9967 174.216 67.7179 174.191 69.8071C174.165 71.8963 172.463 73.5765 170.373 73.5765C168.283 73.5765 166.581 71.8963 166.556 69.8071Z" fill="#093F68"/>
<path d="M165.982 69.4437C165.837 69.4435 165.696 69.3902 165.586 69.2937L163.275 67.2478C163.102 67.1089 163.02 66.8859 163.061 66.6679C163.103 66.4499 163.261 66.2726 163.473 66.2068C163.685 66.141 163.916 66.1976 164.074 66.3538L166.385 68.3997C166.573 68.5654 166.638 68.8303 166.548 69.0643C166.459 69.2982 166.233 69.4519 165.982 69.4497V69.4437Z" fill="#093F68"/>
<rect x="162.915" y="106.205" width="5.4502" height="4.59591" fill="#080C20"/>
<path fill-rule="evenodd" clip-rule="evenodd" d="M162.915 111.401H168.365C168.697 111.401 168.966 111.132 168.966 110.801V106.205C168.966 105.874 168.697 105.605 168.365 105.605H162.915C162.584 105.605 162.315 105.874 162.315 106.205V110.801C162.315 111.132 162.584 111.401 162.915 111.401ZM167.765 110.201H163.515V106.805H167.765V110.201Z" fill="#093F68"/>
<path d="M168.365 106.805C168.034 106.805 167.765 106.536 167.765 106.205V96.2451C167.765 95.9138 168.034 95.6451 168.365 95.6451C168.697 95.6451 168.966 95.9138 168.966 96.2451V106.205C168.966 106.536 168.697 106.805 168.365 106.805Z" fill="#093F68"/>
<path d="M146.853 5.55103H189.386C192.335 5.55433 194.725 7.94315 194.728 10.8909V23.8387C194.728 26.7878 192.336 29.1785 189.386 29.1785H183.569V36.7144L176.925 29.1785H146.853C145.435 29.1801 144.076 28.6181 143.073 27.6163C142.071 26.6145 141.509 25.2554 141.511 23.8387V10.8909C141.511 7.94178 143.902 5.55103 146.853 5.55103Z" fill="#080C20"/>
<path fill-rule="evenodd" clip-rule="evenodd" d="M183.119 37.1104C183.233 37.2399 183.397 37.3142 183.569 37.3144C183.641 37.3136 183.712 37.3015 183.779 37.2784C184.015 37.1905 184.17 36.9655 184.17 36.7144V29.7785H189.386C192.666 29.7752 195.325 27.1178 195.328 23.8387V10.8909C195.325 7.6118 192.666 4.95436 189.386 4.95105H146.853C143.572 4.95436 140.913 7.6118 140.91 10.8909V23.8387C140.913 27.1178 143.572 29.7752 146.853 29.7785H176.655L183.119 37.1104ZM142.111 10.8909C142.114 8.27452 144.235 6.15433 146.853 6.15103H189.386C192.003 6.15433 194.124 8.27452 194.128 10.8909V23.8387C194.128 26.4564 192.005 28.5786 189.386 28.5786H183.569C183.238 28.5786 182.969 28.8472 182.969 29.1786V35.1304L177.375 28.7826C177.261 28.6531 177.097 28.5788 176.925 28.5786H146.853C144.234 28.5786 142.111 26.4564 142.111 23.8387V10.8909Z" fill="#093F68"/>
<path d="M187.285 13.9448H153.263C152.932 13.9448 152.663 13.6762 152.663 13.3449C152.663 13.0135 152.932 12.7449 153.263 12.7449H187.285C187.617 12.7449 187.885 13.0135 187.885 13.3449C187.885 13.6762 187.617 13.9448 187.285 13.9448Z" fill="#093F68"/>
<path d="M177.201 21.1507H170.238C169.907 21.1507 169.638 20.882 169.638 20.5507C169.638 20.2193 169.907 19.9507 170.238 19.9507H177.201C177.532 19.9507 177.801 20.2193 177.801 20.5507C177.801 20.882 177.532 21.1507 177.201 21.1507Z" fill="#093F68"/>
<path d="M164.83 21.1507H153.263C152.932 21.1507 152.663 20.882 152.663 20.5507C152.663 20.2193 152.932 19.9507 153.263 19.9507H164.83C165.161 19.9507 165.43 20.2193 165.43 20.5507C165.43 20.882 165.161 21.1507 164.83 21.1507Z" fill="#093F68"/>
<path d="M153.359 1.3631H110.826C107.872 1.3631 105.478 3.75654 105.478 6.70899V19.6567C105.481 22.6068 107.875 24.9966 110.826 24.9966H116.643V32.5325L123.281 24.9966H153.359C156.308 24.9933 158.698 22.6045 158.701 19.6567V6.70899C158.701 3.75888 156.311 1.36641 153.359 1.3631Z" fill="#080C20"/>
<path fill-rule="evenodd" clip-rule="evenodd" d="M116.432 33.0905C116.499 33.1193 116.57 33.1337 116.642 33.1325C116.821 33.1375 116.993 33.0628 117.111 32.9285L123.557 25.5966H153.359C156.64 25.5933 159.298 22.9359 159.302 19.6567V6.709C159.298 3.42889 156.641 0.769734 153.359 0.763123H110.826C107.544 0.769724 104.884 3.42792 104.878 6.709V19.6567C104.884 22.9368 107.545 25.5933 110.826 25.5966H116.042V32.5325C116.044 32.7814 116.199 33.0034 116.432 33.0905ZM106.078 6.709C106.081 4.08928 108.205 1.9664 110.826 1.9631H153.359C155.978 1.96971 158.098 4.09162 158.101 6.709V19.6567C158.095 22.2718 155.975 24.39 153.359 24.3966H123.281C123.109 24.3969 122.945 24.4712 122.831 24.6006L117.243 30.9425V24.9966C117.243 24.6653 116.974 24.3966 116.642 24.3966H110.826C108.208 24.3933 106.085 22.2741 106.078 19.6567V6.709Z" fill="#093F68"/>
<path d="M149.104 9.19296H115.076C114.744 9.19296 114.476 8.92433 114.476 8.59297C114.476 8.2616 114.744 7.99298 115.076 7.99298H149.104C149.435 7.99298 149.704 8.2616 149.704 8.59297C149.704 8.92433 149.435 9.19296 149.104 9.19296Z" fill="#093F68"/>
<path d="M139.019 16.3988H115.076C114.744 16.3988 114.476 16.1301 114.476 15.7988C114.476 15.4674 114.744 15.1988 115.076 15.1988H139.019C139.351 15.1988 139.62 15.4674 139.62 15.7988C139.62 16.1301 139.351 16.3988 139.019 16.3988Z" fill="#093F68"/>
</svg>
