<svg width="386" height="268" viewBox="0 0 386 268" fill="none" xmlns="http://www.w3.org/2000/svg">
<path opacity="0.25" d="M88.8787 263.706L88.9168 263.743L88.9306 263.743L89.0094 263.75L89.1848 263.76L89.2722 263.763L89.4655 263.761L89.686 263.751L89.9364 263.732L90.2196 263.703L90.5385 263.664L90.8959 263.616L91.3913 263.542L91.9747 263.449L92.5212 263.357L93.0329 263.264C93.1154 263.249 93.1965 263.234 93.2763 263.218L93.7393 263.125L94.1722 263.03C94.2419 263.014 94.3105 262.997 94.378 262.981L94.7694 262.882C96.0312 262.548 96.8727 262.158 97.6167 261.608L97.8373 261.438L98.0539 261.257C98.0898 261.226 98.1256 261.195 98.1614 261.163L98.3148 261.022L98.4279 260.91L98.6462 260.681L98.9172 260.388L99.5088 259.733L101.708 257.243L103.103 255.659L103.948 254.71L104.498 254.102L104.81 253.762L106.155 252.317L107.016 251.387L108.257 250.038L109.442 248.738L110.577 247.482L111.667 246.262L112.718 245.073L113.399 244.295L114.395 243.143L115.044 242.383L116 241.252L116.628 240.5L119.687 236.786L122.144 233.776L125.151 230.063L128.043 226.461L132.342 221.066L136.88 215.333L143.932 206.382L148.542 200.512L159.77 186.15L195.309 140.521L205.323 127.733L208.785 123.333L213.748 117.044L216.534 113.526L217.37 112.482L218.591 110.979L219.474 109.909L220.769 108.362L222.166 106.717L224.174 104.385L226.495 101.72L251.215 73.5008L258.578 65.142L263.247 59.8819L265.962 56.8454L269.595 52.8118L272.381 49.7441L274.499 47.4278L276.952 44.7591L278.157 43.4548L278.693 42.8828L279.228 42.3196L279.763 41.7643L280.298 41.2163L280.836 40.6747L281.376 40.1389L281.919 39.608L282.467 39.0814L283.298 38.2978L283.86 37.7786L284.429 37.2609L285.006 36.7442L285.592 36.2275L286.187 35.7103L286.793 35.1917L287.41 34.671L288.039 34.1474L288.681 33.6203L289.671 32.8211L290.349 32.2817L291.043 31.7361L292.116 30.9044L293.229 30.0545L293.995 29.4766L295.182 28.5908L296.416 27.6802L297.268 27.058L298.142 26.4229L299.499 25.4444L300.914 24.4326L303.776 22.403L304.426 21.9313L306.384 20.4784L306.945 20.0649L307.727 19.4966L308.213 19.1496L308.675 18.8259L309.115 18.5238L309.537 18.2412C309.606 18.1956 309.674 18.1508 309.742 18.1067L310.143 17.8501L310.533 17.6084C310.597 17.5693 310.662 17.5307 310.725 17.4926L311.107 17.2699L311.485 17.0575L311.865 16.8536C311.929 16.8202 311.993 16.7871 312.056 16.7542L312.444 16.5594L312.84 16.3685C312.906 16.3369 312.974 16.3053 313.042 16.2738C315.836 14.9792 317.913 14.8462 319.347 16.4159C320.017 17.1482 320.295 17.7989 320.422 18.9327L320.454 19.2703C320.459 19.3289 320.463 19.3887 320.467 19.4498L320.49 19.8323L320.507 20.2484L320.553 21.8757L320.605 22.8888L320.672 24.0474C320.777 26.0073 320.755 27.3384 320.521 28.7327L320.43 29.266L320.25 30.3018L320.07 31.2982L319.888 32.2578C319.858 32.4148 319.828 32.5704 319.797 32.7246L319.613 33.6336L319.425 34.512C319.236 35.3759 319.041 36.1975 318.837 36.988L318.629 37.7686C318.207 39.3107 317.741 40.7431 317.201 42.155L316.884 42.9641L316.613 43.6367L316.246 44.5202L315.962 45.1812L315.668 45.8478L315.362 46.5263L314.928 47.4606L314.581 48.1918L314.082 49.2192L313.677 50.0374L312.937 51.5107L312.277 52.8048L309.521 58.1602L308.947 59.2938L308.346 60.503L307.982 61.2492L307.722 61.7917L307.373 62.5339L307.024 63.2886L306 65.5348L304.971 67.8035L303.59 70.872L302.194 74.0004L300.777 77.2003L298.968 81.318L297.484 84.7202L295.576 89.1267L293.999 92.7889L293.193 94.6695C293.111 94.8609 293.027 95.0542 292.941 95.25L292.675 95.8454L292.395 96.4594L292.099 97.0956L291.785 97.7577L291.276 98.8074L290.718 99.936L289.997 101.369L286.973 107.313L286.456 108.347L285.722 109.837C285.643 109.998 285.565 110.159 285.488 110.318L285.036 111.26L284.603 112.175L284.191 113.066C284.124 113.212 284.057 113.358 283.991 113.502L283.607 114.36C283.544 114.501 283.482 114.642 283.421 114.781L283.063 115.61L282.721 116.423C282.61 116.691 282.501 116.957 282.395 117.221L282.085 118.006C281.933 118.396 281.787 118.782 281.646 119.165L281.371 119.928C281.326 120.055 281.282 120.182 281.238 120.308L280.982 121.063C280.94 121.189 280.899 121.315 280.858 121.44C278.17 129.716 278.178 136.334 281.402 141.717L281.5 141.877L281.547 141.895L281.607 141.913L281.758 141.95L282.084 142.011L282.58 142.083C286.792 142.688 292.163 141.35 295.568 138.888L295.939 138.616L296.479 138.207L296.918 137.866L297.547 137.366L298.227 136.815L299.34 135.894L300.563 134.861L302.127 133.517L303.583 132.249L305.413 130.636L307.381 128.882L309.484 126.99L313.057 123.747L315.139 121.842L319.576 117.755L322.328 115.204L325.873 111.901L332.029 106.129L351.238 88.0187L352.043 87.2906L352.856 86.5632L353.677 85.8373L354.505 85.1143L355.337 84.395L356.174 83.6806L357.013 82.9722C357.153 82.8547 357.293 82.7375 357.433 82.6206L358.275 81.9232L359.116 81.2346C359.257 81.1206 359.397 81.007 359.537 80.8939L360.376 80.2203C360.516 80.109 360.656 79.9981 360.795 79.8877L361.63 79.2318C361.769 79.1235 361.908 79.0157 362.046 78.9086L362.874 78.2726L363.696 77.6513C364.514 77.0377 365.322 76.4477 366.113 75.8864L366.9 75.3347L367.674 74.8032C367.802 74.7163 367.929 74.6304 368.056 74.5453L368.811 74.046C370.181 73.1512 371.479 72.3716 372.671 71.7374L373.318 71.401L373.947 71.0823L374.55 70.7843C378.294 68.962 380.627 68.3731 383.636 68.8497C384.597 69.0018 385.176 69.6176 385.467 70.3511C385.602 70.692 385.663 71.0426 385.672 71.3786L385.689 71.8631L385.709 72.2448L385.761 73.0119L385.881 74.5679L385.925 75.1999L385.959 75.7925L385.983 76.3498L385.997 76.876C386.02 78.3268 385.91 79.4525 385.613 80.6767L385.535 80.9919L385.377 81.6151L385.213 82.2321L385.043 82.8468L384.865 83.4629C384.835 83.5659 384.805 83.6691 384.773 83.7727L384.582 84.3982L384.381 85.035C384.346 85.1423 384.311 85.2501 384.276 85.3587L384.056 86.0195L383.824 86.701L383.578 87.4073L383.316 88.1422L382.892 89.3065L382.586 90.1297L381.129 94.006L380.706 95.1557L380.515 95.6889C378.555 101.179 377.666 105.293 377.793 109.662L377.807 110.039L378.217 110.078L378.641 110.114L379.021 110.139C379.798 110.181 380.294 110.144 380.735 110.014C380.819 109.989 380.905 109.951 381.004 109.892L381.129 109.811L381.27 109.705L381.433 109.571C381.462 109.547 381.492 109.521 381.524 109.493L381.726 109.312L382.091 108.971L382.465 108.617L382.673 108.427L382.859 108.262L383.037 108.113L383.218 107.97L383.312 107.897L385.877 111.292L385.77 111.375L385.601 111.517L385.47 111.634L385.132 111.95L385.025 112.051C383.767 113.25 383.105 113.749 381.942 114.093C380.774 114.439 379.732 114.475 378.131 114.341L376.805 114.219L376.435 114.191L376.188 114.178C375.869 114.165 375.542 114.108 375.214 113.982C374.433 113.681 373.779 113.061 373.679 112.013C373.136 106.296 374.022 101.344 376.327 94.768L376.605 93.9858L377.139 92.5275L378.593 88.6601L379.028 87.4842L379.296 86.7464L379.668 85.6997L379.897 85.0365L380.112 84.3965L380.315 83.7762L380.507 83.1718L380.689 82.5796L380.861 81.9959L381.025 81.417L381.182 80.8391L381.332 80.2586L381.478 79.6717C381.682 78.8355 381.76 78.0019 381.739 76.855L381.727 76.4095C381.724 76.3327 381.721 76.2544 381.717 76.1747L381.691 75.6782L381.657 75.1432L381.513 73.2633L381.491 72.9676L381.337 72.9774C380.199 73.0609 378.988 73.4333 377.38 74.1563L376.886 74.3839L376.366 74.6328L375.818 74.9035C375.724 74.9504 375.629 74.9983 375.533 75.0471L374.951 75.3457C373.566 76.0626 371.994 77.0227 370.303 78.1619L369.571 78.6609C369.078 79.0006 368.577 79.3542 368.068 79.7202L367.299 80.2783L366.521 80.8537C366.391 80.951 366.26 81.049 366.129 81.1477L365.338 81.7472L364.54 82.3614L363.737 82.989L362.93 83.6291L362.119 84.2804C361.984 84.3898 361.848 84.4997 361.713 84.6099L360.9 85.276L360.086 85.9506L359.274 86.6325C359.138 86.7467 359.003 86.8611 358.868 86.9758L357.657 88.0138L356.854 88.7109L356.058 89.4109L355.269 90.1126L354.487 90.8149L354.015 91.2464L334.876 109.292L327.322 116.368L323.601 119.826L319.724 123.407L316.458 126.403L313.737 128.881L310.885 131.455L308.541 133.548L307.168 134.762L305.369 136.337L303.942 137.57L302.835 138.513L302.004 139.211L301.221 139.86L300.313 140.6L299.643 141.134L299.173 141.501L298.732 141.839L298.32 142.147L298.062 142.336C293.854 145.378 287.553 146.989 282.309 146.339L281.937 146.289L281.382 146.208L281.204 146.177C279.757 145.919 278.691 145.416 277.955 144.236C273.792 137.559 273.728 129.62 276.811 120.126C276.984 119.594 277.164 119.062 277.353 118.527L277.643 117.722L277.947 116.912C278.102 116.504 278.262 116.094 278.428 115.68L278.769 114.845L279.125 113.996L279.498 113.132L279.888 112.25C279.955 112.102 280.022 111.952 280.09 111.802L280.508 110.89L280.946 109.954L281.403 108.993C281.481 108.831 281.56 108.668 281.639 108.503L282.128 107.5L282.902 105.939L284.079 103.614L286.516 98.8261L286.906 98.0475L287.446 96.9549L287.778 96.2716L288.09 95.6204L288.383 94.9978L288.659 94.4004L288.918 93.8248L289.164 93.2675L291.67 87.4379L293.206 83.8889L294.703 80.451L296.166 77.1129L297.6 73.8631L298.308 72.2677L299.709 69.1289L301.095 66.0498L302.47 63.0191L303.381 61.0273L303.786 60.1631L304.1 59.5044L304.427 58.8298L304.775 58.1246L305.299 57.0788L306.211 55.2887L308.302 51.2323L308.962 49.9408L309.56 48.7563L310.232 47.4041L310.48 46.8973L310.717 46.4073L311.054 45.6997L311.473 44.798L311.672 44.361L311.864 43.9307L312.142 43.294L312.411 42.6623L312.586 42.2409L312.76 41.8172C312.874 41.5336 312.989 41.2472 313.103 40.9556C313.817 39.1325 314.398 37.2588 314.924 35.0967L315.107 34.3212C315.258 33.6644 315.405 32.9802 315.55 32.2626L315.723 31.3851L315.895 30.4732L316.067 29.5245L316.238 28.5369C316.267 28.3689 316.296 28.1992 316.325 28.0277C316.442 27.33 316.487 26.6082 316.474 25.6816L316.462 25.1549L316.439 24.581L316.306 22.1579L316.283 21.5192L316.256 20.4381L316.237 20.0043L316.219 19.7526L316.204 19.6106L316.141 19.6273C315.846 19.7087 315.466 19.8481 315.007 20.0536L314.831 20.1338L314.492 20.2943L314.159 20.4586C314.104 20.4864 314.049 20.5145 313.994 20.5428L313.667 20.7162C313.612 20.7457 313.557 20.7756 313.503 20.8058L313.173 20.9921L312.839 21.189L312.497 21.3984L312.144 21.6219L311.779 21.8612L311.397 22.118L310.997 22.3941L310.575 22.6911L309.895 23.1796L308.886 23.92L307.238 25.1443L306.513 25.6745L305.86 26.1413L304.372 27.1944L302.482 28.5409L301.576 29.191L299.839 30.4488L299.005 31.0578L297.797 31.9487L296.636 32.8145L295.52 33.6577L294.8 34.2084L294.097 34.751L293.076 35.5509L292.415 36.076L291.769 36.5955L291.137 37.1099L290.519 37.6202L289.913 38.1269L289.319 38.6309L288.736 39.1329L288.164 39.6335L287.6 40.1335L287.046 40.6337L286.498 41.1347L285.958 41.6373L285.424 42.1423L284.633 42.9056L284.11 43.4196L283.591 43.9384L283.074 44.4628L282.559 44.9935L282.044 45.5313L281.53 46.0769L281.014 46.631L279.004 48.8115L277.03 50.9628L275.825 52.2819L272.242 56.228L270.179 58.5174L267.517 61.4874L263.561 65.9328L258.573 71.5764L250.989 80.2096L235.012 98.4639L229.443 104.812L227.182 107.41L225.638 109.203L224.626 110.39L223.128 112.169L222.073 113.443L221.39 114.279L220.861 114.931L220.157 115.807L219.448 116.698L213.446 124.292L208.501 130.575L198.023 143.959L160.215 192.496L151.89 203.137L141.271 216.637L135.065 224.478L132.744 227.393L130.287 230.465L128.207 233.052L126.691 234.926L123.229 239.176L121.402 241.4L119.902 243.217L119.263 243.983L118.616 244.749L117.63 245.906L116.618 247.076L115.927 247.867L115.22 248.668L114.129 249.894L112.995 251.154L112.212 252.016L110.994 253.348L109.281 255.204L107.706 256.898L107.188 257.471L105.537 259.336L103.39 261.77L102.445 262.826L101.769 263.564L101.413 263.938L101.206 264.144L101.149 264.197C99.5869 265.633 98.0246 266.459 95.4857 267.085L94.9819 267.204C94.8097 267.243 94.6332 267.281 94.4521 267.318L93.8947 267.429L93.3083 267.537L92.6911 267.642L91.9395 267.761L91.5071 267.825L91.0925 267.879L90.6952 267.923L90.3145 267.958L89.95 267.983L89.6012 267.997C87.3261 268.054 86.0555 267.381 85.0611 265.494L84.9139 265.202L84.7703 264.891C84.7467 264.837 84.7231 264.783 84.6997 264.728L84.5605 264.389C84.5375 264.331 84.5146 264.272 84.4918 264.212L84.3557 263.843L84.2211 263.454L84.0873 263.045L83.9538 262.615L83.8201 262.164L83.6857 261.692C83.0062 259.259 82.6445 256.639 82.558 253.836L82.4744 250.972L82.4204 248.89L82.3886 247.531L82.3474 245.536L82.3144 243.592L82.297 242.323L82.2835 241.075L82.2738 239.847L82.2666 238.044L82.2686 236.284L82.2801 234.566L82.3012 232.888L82.3207 231.791L82.3448 230.71L82.3734 229.645L82.4067 228.595L82.4447 227.561L82.4875 226.54L82.5351 225.534L82.5877 224.541L82.6454 223.561L82.7081 222.593L82.7761 221.637C82.7878 221.478 82.7998 221.321 82.812 221.163L82.8879 220.224L82.9691 219.295L83.0558 218.376L83.148 217.466L83.2458 216.566L83.3493 215.674L83.4586 214.79C83.4772 214.643 83.4962 214.496 83.5154 214.35L83.6334 213.477C83.6536 213.332 83.674 213.187 83.6947 213.043L83.8217 212.179L83.9548 211.321L84.094 210.469L84.2394 209.621L84.3912 208.777L84.5493 207.937L84.7139 207.101L84.885 206.267L85.0627 205.435L85.2471 204.605L85.4382 203.776L85.6362 202.948C85.7034 202.672 85.7717 202.396 85.8412 202.12C91.5928 179.257 100.105 155.614 111.605 129.479L112.396 127.687L113.187 125.905L113.715 124.723L114.244 123.543C115.126 121.578 116.014 119.623 116.916 117.658L118.321 114.613L119.415 112.267L120.979 108.943L122.356 106.047L123.771 103.094L124.984 100.584L126.485 97.5016L128.836 92.7134L131.324 87.6949L133.365 83.6091L136.78 76.8213L140.826 68.8355L151.152 48.5955L153.504 44.0219L155.228 40.6964L156.986 37.3403L157.984 35.4553L159.273 33.0445L160.059 31.5897L160.838 30.1574L161.782 28.4377L162.746 26.6962L163.2 25.8847L163.765 24.8929L164.232 24.088L164.723 23.2548L165.241 22.389L165.797 21.4746L166.885 19.7098L168.572 17.0134L171.571 12.2454L172.787 10.2831L173.448 9.19966L174.171 7.99391L174.956 6.65107L175.07 6.45304L160.493 16.9074L155.858 20.254L152.476 22.7167L149.397 24.983L147.793 26.1747L145.652 27.7816L143.604 29.3371L142.182 30.4292L141.11 31.2599L139.382 32.6112L138.453 33.3441L137.655 33.9777L136.313 35.0491L134.108 36.8236L132.203 38.3644L130.317 39.8982L128.062 41.7428L125.041 44.2323L122.585 46.2724L119.423 48.9183L115.433 52.2849L111.891 55.2948L105.278 60.9528L100.059 65.4437L92.2341 72.2004L80.1585 82.6397L78.3877 84.1647L76.8977 85.4287L72.2558 89.3002L70.6893 90.6203L69.5427 91.5988L68.4814 92.5176L67.7363 93.1726L67.0306 93.8024L66.3607 94.4105L65.9322 94.8057L65.3139 95.3858L64.9163 95.7656L64.5292 96.1411L63.9659 96.6986L63.6003 97.068L63.2413 97.4369L62.713 97.9914L62.1936 98.5507L61.6795 99.1182L61.3378 99.503L60.9958 99.8941C59.2413 101.915 57.5505 103.879 55.8718 105.849L54.2306 107.78L52.2103 110.176L49.9417 112.888L47.8783 115.376L45.7507 117.958L43.2571 121.007L40.0271 124.984L36.5502 129.292L30.9507 136.274L13.8659 157.702L11.198 161.035L8.87132 163.933L6.23626 167.198L3.3009 170.816L0 168.132L2.73578 164.761L6.864 159.639L14.5702 149.997L27.2423 134.099L32.1121 128.022L34.8645 124.603L39.0066 119.488L41.6771 116.216L44.7741 112.453L47.209 109.522L49.5884 106.683L51.4209 104.515L52.5821 103.149C53.9447 101.55 55.3153 99.955 56.7211 98.3301L57.9643 96.8968L58.3269 96.4851L58.8704 95.8799L59.234 95.4829L59.6001 95.0899L59.9696 94.6997L60.533 94.1173L60.9163 93.7294L61.5056 93.1451L61.9096 92.7524L62.5352 92.1558L63.1877 91.5468L63.6396 91.1321L64.3454 90.4943L65.0882 89.834L65.8718 89.1477L66.9868 88.1856L68.19 87.1615L70.1802 85.4898L73.9023 82.3884L75.2088 81.2848L76.0422 80.5707L97.7489 61.8177L103.348 57.0029L108.783 52.353L113.046 48.7313L116.054 46.1929L119.563 43.2525L121.728 41.4524L125.366 38.4509L127.63 36.5997L129.371 35.1834L131.359 33.5753C131.692 33.3061 132.027 33.0362 132.364 32.7653L133.378 31.9495C134.655 30.9238 135.901 29.9341 137.15 28.954L138.499 27.9006L140.453 26.3916L142.752 24.6396L145.476 22.5955L147.4 21.1682L150.493 18.8963L153.105 16.9949L158.99 12.7478L171.581 3.72398L173.058 2.65937C174.227 1.8163 175.449 1.16279 177.26 0.338505C177.595 0.186036 178.018 0.0635 178.411 0.0202551C178.812 -0.0240306 179.195 -0.00397834 179.63 0.164099C180.582 0.5321 181.192 1.49527 181.045 2.56438C180.812 4.25841 180.261 5.91756 179.435 7.38461C179.206 7.79201 178.981 8.18713 178.756 8.57888L178.073 9.75291L177.355 10.9601L176.57 12.2538L175.526 13.9437L174.297 15.9088L171.396 20.5172L169.885 22.947L168.901 24.5596L168.393 25.408L167.679 26.6224L167.346 27.2007L166.907 27.9737L166.465 28.7621L165.509 30.491L164.882 31.6306L163.762 33.6869L162.46 36.1048L161.122 38.62L159.717 41.2914L157.416 45.72L154.787 50.8311L145.438 69.1545L142.088 75.7524L138.968 81.9337L136.055 87.7438L133.919 92.0355L132.17 95.5737L130.216 99.5567L128.346 103.404L126.803 106.61L125.062 110.263L123.614 113.334L122.2 116.364L121.043 118.867L120.129 120.861L119.449 122.355L118.654 124.111L118.126 125.284C117.247 127.239 116.374 129.203 115.499 131.192L114.941 132.465L113.837 135C113.291 136.264 112.751 137.521 112.218 138.773L111.163 141.269C102.098 162.84 95.1746 182.75 90.2495 202.045L89.9676 203.157C89.9006 203.423 89.8348 203.689 89.7701 203.956L89.5793 204.754C89.5481 204.888 89.5171 205.021 89.4864 205.154L89.3054 205.955L89.1309 206.758C89.1024 206.892 89.0741 207.026 89.0461 207.16L88.8811 207.966L88.7225 208.776C88.6966 208.911 88.6709 209.046 88.6455 209.182L88.4961 209.997L88.3528 210.816L88.2156 211.641L88.0843 212.471L87.9588 213.307L87.8392 214.149C87.8198 214.29 87.8006 214.431 87.7816 214.572L87.6705 215.425C87.6525 215.568 87.6347 215.711 87.6171 215.854L87.5145 216.719C87.4979 216.864 87.4815 217.009 87.4653 217.154L87.3709 218.031C87.3556 218.178 87.3406 218.326 87.3257 218.474L87.2395 219.365L87.1585 220.266C87.1454 220.417 87.1326 220.569 87.1199 220.721L87.0468 221.638L86.9787 222.566L86.9157 223.506L86.8577 224.458L86.8045 225.423L86.7562 226.401L86.7127 227.393L86.6738 228.399L86.6396 229.42L86.6099 230.456L86.5846 231.507L86.5637 232.575L86.5405 234.209L86.5268 235.882L86.5223 237.596L86.5243 238.762L86.5346 240.548L86.5463 241.765L86.5708 243.628L86.5917 244.897L86.6441 247.501L86.6923 249.515L86.7286 250.887L86.8109 253.705C86.8874 256.183 87.2027 258.467 87.7838 260.548L87.9603 261.17L88.1191 261.711L88.2615 262.176L88.3886 262.57L88.5017 262.898L88.6019 263.165L88.6622 263.312L88.7176 263.435L88.7686 263.537L88.8154 263.618L88.8585 263.681C88.8654 263.69 88.8721 263.698 88.8787 263.706Z" fill="#093F68"/>
</svg>
